
<svg viewbox="0 0 267.97 164.79"
     width="267.97"
     height="164.79"
     xmlns="http://www.w3.org/2000/svg">
  <g transform="translate(18.90, 18.90)">
    <line x1="0.57" y1="0.00" x2="32.31" y2="0.00" stroke="#0072B2" />
    <line x1="33.45" y1="0.00" x2="65.20" y2="0.00" stroke="#0072B2" />
    <line x1="66.33" y1="0.00" x2="98.08" y2="0.00" stroke="#0072B2" />
    <line x1="99.21" y1="0.00" x2="130.96" y2="0.00" stroke="#0072B2" />
    <line x1="132.09" y1="0.00" x2="163.84" y2="0.00" stroke="#0072B2" />
    <line x1="164.98" y1="0.00" x2="196.72" y2="0.00" stroke="#0072B2" />
    <line x1="197.86" y1="0.00" x2="229.61" y2="0.00" stroke="#0072B2" />
    <line x1="0.57" y1="15.87" x2="32.31" y2="15.87" stroke="#0072B2" />
    <line x1="33.45" y1="15.87" x2="65.20" y2="15.87" stroke="#0072B2" />
    <line x1="66.33" y1="15.87" x2="98.08" y2="15.87" stroke="#0072B2" />
    <line x1="99.21" y1="15.87" x2="130.96" y2="15.87" stroke="#0072B2" />
    <line x1="132.09" y1="15.87" x2="163.84" y2="15.87" stroke="#0072B2" />
    <line x1="164.98" y1="15.87" x2="196.72" y2="15.87" stroke="#0072B2" />
    <line x1="197.86" y1="15.87" x2="229.61" y2="15.87" stroke="#0072B2" />
    <line x1="0.57" y1="31.75" x2="32.31" y2="31.75" stroke="#0072B2" />
    <line x1="33.45" y1="31.75" x2="65.20" y2="31.75" stroke="#0072B2" />
    <line x1="66.33" y1="31.75" x2="98.08" y2="31.75" stroke="#0072B2" />
    <line x1="99.21" y1="31.75" x2="130.96" y2="31.75" stroke="#0072B2" />
    <line x1="132.09" y1="31.75" x2="163.84" y2="31.75" stroke="#0072B2" />
    <line x1="164.98" y1="31.75" x2="196.72" y2="31.75" stroke="#0072B2" />
    <line x1="197.86" y1="31.75" x2="229.61" y2="31.75" stroke="#0072B2" />
    <line x1="0.57" y1="47.62" x2="32.31" y2="47.62" stroke="#0072B2" />
    <line x1="33.45" y1="47.62" x2="65.20" y2="47.62" stroke="#0072B2" />
    <line x1="66.33" y1="47.62" x2="98.08" y2="47.62" stroke="#0072B2" />
    <line x1="99.21" y1="47.62" x2="130.96" y2="47.62" stroke="#0072B2" />
    <line x1="132.09" y1="47.62" x2="163.84" y2="47.62" stroke="#0072B2" />
    <line x1="164.98" y1="47.62" x2="196.72" y2="47.62" stroke="#0072B2" />
    <line x1="197.86" y1="47.62" x2="229.61" y2="47.62" stroke="#0072B2" />
    <line x1="0.57" y1="63.50" x2="32.31" y2="63.50" stroke="#0072B2" />
    <line x1="33.45" y1="63.50" x2="65.20" y2="63.50" stroke="#0072B2" />
    <line x1="66.33" y1="63.50" x2="98.08" y2="63.50" stroke="#0072B2" />
    <line x1="99.21" y1="63.50" x2="130.96" y2="63.50" stroke="#0072B2" />
    <line x1="132.09" y1="63.50" x2="163.84" y2="63.50" stroke="#0072B2" />
    <line x1="164.98" y1="63.50" x2="196.72" y2="63.50" stroke="#0072B2" />
    <line x1="197.86" y1="63.50" x2="229.61" y2="63.50" stroke="#0072B2" />
    <line x1="0.57" y1="79.37" x2="32.31" y2="79.37" stroke="#0072B2" />
    <line x1="33.45" y1="79.37" x2="65.20" y2="79.37" stroke="#0072B2" />
    <line x1="66.33" y1="79.37" x2="98.08" y2="79.37" stroke="#0072B2" />
    <line x1="99.21" y1="79.37" x2="130.96" y2="79.37" stroke="#0072B2" />
    <line x1="132.09" y1="79.37" x2="163.84" y2="79.37" stroke="#0072B2" />
    <line x1="164.98" y1="79.37" x2="196.72" y2="79.37" stroke="#0072B2" />
    <line x1="197.86" y1="79.37" x2="229.61" y2="79.37" stroke="#0072B2" />
    <line x1="0.57" y1="95.24" x2="32.31" y2="95.24" stroke="#0072B2" />
    <line x1="33.45" y1="95.24" x2="65.20" y2="95.24" stroke="#0072B2" />
    <line x1="66.33" y1="95.24" x2="98.08" y2="95.24" stroke="#0072B2" />
    <line x1="99.21" y1="95.24" x2="130.96" y2="95.24" stroke="#0072B2" />
    <line x1="132.09" y1="95.24" x2="163.84" y2="95.24" stroke="#0072B2" />
    <line x1="164.98" y1="95.24" x2="196.72" y2="95.24" stroke="#0072B2" />
    <line x1="197.86" y1="95.24" x2="229.61" y2="95.24" stroke="#0072B2" />
    <line x1="0.57" y1="111.12" x2="32.31" y2="111.12" stroke="#0072B2" />
    <line x1="33.45" y1="111.12" x2="65.20" y2="111.12" stroke="#0072B2" />
    <line x1="66.33" y1="111.12" x2="98.08" y2="111.12" stroke="#0072B2" />
    <line x1="99.21" y1="111.12" x2="130.96" y2="111.12" stroke="#0072B2" />
    <line x1="132.09" y1="111.12" x2="163.84" y2="111.12" stroke="#0072B2" />
    <line x1="164.98" y1="111.12" x2="196.72" y2="111.12" stroke="#0072B2" />
    <line x1="197.86" y1="111.12" x2="229.61" y2="111.12" stroke="#0072B2" />
    <line x1="0.57" y1="126.99" x2="32.31" y2="126.99" stroke="#0072B2" />
    <line x1="33.45" y1="126.99" x2="65.20" y2="126.99" stroke="#0072B2" />
    <line x1="66.33" y1="126.99" x2="98.08" y2="126.99" stroke="#0072B2" />
    <line x1="99.21" y1="126.99" x2="130.96" y2="126.99" stroke="#0072B2" />
    <line x1="132.09" y1="126.99" x2="163.84" y2="126.99" stroke="#0072B2" />
    <line x1="164.98" y1="126.99" x2="196.72" y2="126.99" stroke="#0072B2" />
    <line x1="197.86" y1="126.99" x2="229.61" y2="126.99" stroke="#0072B2" />

    <line x1="0.00" y1="0.57" x2="0.00" y2="15.31" stroke="#0072B2" />
    <line x1="32.88" y1="0.57" x2="32.88" y2="15.31" stroke="#0072B2" />
    <line x1="65.76" y1="0.57" x2="65.76" y2="15.31" stroke="#0072B2" />
    <line x1="98.65" y1="0.57" x2="98.65" y2="15.31" stroke="#0072B2" />
    <line x1="131.53" y1="0.57" x2="131.53" y2="15.31" stroke="#0072B2" />
    <line x1="164.41" y1="0.57" x2="164.41" y2="15.31" stroke="#0072B2" />
    <line x1="197.29" y1="0.57" x2="197.29" y2="15.31" stroke="#0072B2" />
    <line x1="230.17" y1="0.57" x2="230.17" y2="15.31" stroke="#0072B2" />
    <line x1="0.00" y1="16.44" x2="0.00" y2="31.18" stroke="#0072B2" />
    <line x1="32.88" y1="16.44" x2="32.88" y2="31.18" stroke="#0072B2" />
    <line x1="65.76" y1="16.44" x2="65.76" y2="31.18" stroke="#0072B2" />
    <line x1="98.65" y1="16.44" x2="98.65" y2="31.18" stroke="#0072B2" />
    <line x1="131.53" y1="16.44" x2="131.53" y2="31.18" stroke="#0072B2" />
    <line x1="164.41" y1="16.44" x2="164.41" y2="31.18" stroke="#0072B2" />
    <line x1="197.29" y1="16.44" x2="197.29" y2="31.18" stroke="#0072B2" />
    <line x1="230.17" y1="16.44" x2="230.17" y2="31.18" stroke="#0072B2" />
    <line x1="0.00" y1="32.31" x2="0.00" y2="47.06" stroke="#0072B2" />
    <line x1="32.88" y1="32.31" x2="32.88" y2="47.06" stroke="#0072B2" />
    <line x1="65.76" y1="32.31" x2="65.76" y2="47.06" stroke="#0072B2" />
    <line x1="98.65" y1="32.31" x2="98.65" y2="47.06" stroke="#0072B2" />
    <line x1="131.53" y1="32.31" x2="131.53" y2="47.06" stroke="#0072B2" />
    <line x1="164.41" y1="32.31" x2="164.41" y2="47.06" stroke="#0072B2" />
    <line x1="197.29" y1="32.31" x2="197.29" y2="47.06" stroke="#0072B2" />
    <line x1="230.17" y1="32.31" x2="230.17" y2="47.06" stroke="#0072B2" />
    <line x1="0.00" y1="48.19" x2="0.00" y2="62.93" stroke="#0072B2" />
    <line x1="32.88" y1="48.19" x2="32.88" y2="62.93" stroke="#0072B2" />
    <line x1="65.76" y1="48.19" x2="65.76" y2="62.93" stroke="#0072B2" />
    <line x1="98.65" y1="48.19" x2="98.65" y2="62.93" stroke="#0072B2" />
    <line x1="131.53" y1="48.19" x2="131.53" y2="62.93" stroke="#0072B2" />
    <line x1="164.41" y1="48.19" x2="164.41" y2="62.93" stroke="#0072B2" />
    <line x1="197.29" y1="48.19" x2="197.29" y2="62.93" stroke="#0072B2" />
    <line x1="230.17" y1="48.19" x2="230.17" y2="62.93" stroke="#0072B2" />
    <line x1="0.00" y1="64.06" x2="0.00" y2="78.80" stroke="#0072B2" />
    <line x1="32.88" y1="64.06" x2="32.88" y2="78.80" stroke="#0072B2" />
    <line x1="65.76" y1="64.06" x2="65.76" y2="78.80" stroke="#0072B2" />
    <line x1="98.65" y1="64.06" x2="98.65" y2="78.80" stroke="#0072B2" />
    <line x1="131.53" y1="64.06" x2="131.53" y2="78.80" stroke="#0072B2" />
    <line x1="164.41" y1="64.06" x2="164.41" y2="78.80" stroke="#0072B2" />
    <line x1="197.29" y1="64.06" x2="197.29" y2="78.80" stroke="#0072B2" />
    <line x1="230.17" y1="64.06" x2="230.17" y2="78.80" stroke="#0072B2" />
    <line x1="0.00" y1="79.94" x2="0.00" y2="94.68" stroke="#0072B2" />
    <line x1="32.88" y1="79.94" x2="32.88" y2="94.68" stroke="#0072B2" />
    <line x1="65.76" y1="79.94" x2="65.76" y2="94.68" stroke="#0072B2" />
    <line x1="98.65" y1="79.94" x2="98.65" y2="94.68" stroke="#0072B2" />
    <line x1="131.53" y1="79.94" x2="131.53" y2="94.68" stroke="#0072B2" />
    <line x1="164.41" y1="79.94" x2="164.41" y2="94.68" stroke="#0072B2" />
    <line x1="197.29" y1="79.94" x2="197.29" y2="94.68" stroke="#0072B2" />
    <line x1="230.17" y1="79.94" x2="230.17" y2="94.68" stroke="#0072B2" />
    <line x1="0.00" y1="95.81" x2="0.00" y2="110.55" stroke="#0072B2" />
    <line x1="32.88" y1="95.81" x2="32.88" y2="110.55" stroke="#0072B2" />
    <line x1="65.76" y1="95.81" x2="65.76" y2="110.55" stroke="#0072B2" />
    <line x1="98.65" y1="95.81" x2="98.65" y2="110.55" stroke="#0072B2" />
    <line x1="131.53" y1="95.81" x2="131.53" y2="110.55" stroke="#0072B2" />
    <line x1="164.41" y1="95.81" x2="164.41" y2="110.55" stroke="#0072B2" />
    <line x1="197.29" y1="95.81" x2="197.29" y2="110.55" stroke="#0072B2" />
    <line x1="230.17" y1="95.81" x2="230.17" y2="110.55" stroke="#0072B2" />
    <line x1="0.00" y1="111.69" x2="0.00" y2="126.43" stroke="#0072B2" />
    <line x1="32.88" y1="111.69" x2="32.88" y2="126.43" stroke="#0072B2" />
    <line x1="65.76" y1="111.69" x2="65.76" y2="126.43" stroke="#0072B2" />
    <line x1="98.65" y1="111.69" x2="98.65" y2="126.43" stroke="#0072B2" />
    <line x1="131.53" y1="111.69" x2="131.53" y2="126.43" stroke="#0072B2" />
    <line x1="164.41" y1="111.69" x2="164.41" y2="126.43" stroke="#0072B2" />
    <line x1="197.29" y1="111.69" x2="197.29" y2="126.43" stroke="#0072B2" />
    <line x1="230.17" y1="111.69" x2="230.17" y2="126.43" stroke="#0072B2" />

    <g><rect x="3.59" y="2.46" width="4.16" height="10.96" rx="1.04" style="fill: none; stroke: #000000" /><rect x="25.13" y="2.46" width="4.16" height="10.96" rx="1.04" style="fill: none; stroke: #000000" /></g>
    <g><rect x="36.47" y="2.46" width="4.16" height="10.96" rx="1.04" style="fill: none; stroke: #000000" /><rect x="58.02" y="2.46" width="4.16" height="10.96" rx="1.04" style="fill: none; stroke: #000000" /></g>
    <g><rect x="69.35" y="2.46" width="4.16" height="10.96" rx="1.04" style="fill: none; stroke: #000000" /><rect x="90.90" y="2.46" width="4.16" height="10.96" rx="1.04" style="fill: none; stroke: #000000" /></g>
    <g><rect x="102.24" y="2.46" width="4.16" height="10.96" rx="1.04" style="fill: none; stroke: #000000" /><rect x="123.78" y="2.46" width="4.16" height="10.96" rx="1.04" style="fill: none; stroke: #000000" /></g>
    <g><rect x="135.12" y="2.46" width="4.16" height="10.96" rx="1.04" style="fill: none; stroke: #000000" /><rect x="156.66" y="2.46" width="4.16" height="10.96" rx="1.04" style="fill: none; stroke: #000000" /></g>
    <g><rect x="168.00" y="2.46" width="4.16" height="10.96" rx="1.04" style="fill: none; stroke: #000000" /><rect x="189.54" y="2.46" width="4.16" height="10.96" rx="1.04" style="fill: none; stroke: #000000" /></g>
    <g><rect x="200.88" y="2.46" width="4.16" height="10.96" rx="1.04" style="fill: none; stroke: #000000" /><rect x="222.43" y="2.46" width="4.16" height="10.96" rx="1.04" style="fill: none; stroke: #000000" /></g>
    <g><rect x="3.59" y="18.33" width="4.16" height="10.96" rx="1.04" style="fill: none; stroke: #000000" /><rect x="25.13" y="18.33" width="4.16" height="10.96" rx="1.04" style="fill: none; stroke: #000000" /></g>
    <g><rect x="36.47" y="18.33" width="4.16" height="10.96" rx="1.04" style="fill: none; stroke: #000000" /><rect x="58.02" y="18.33" width="4.16" height="10.96" rx="1.04" style="fill: none; stroke: #000000" /></g>
    <g><rect x="69.35" y="18.33" width="4.16" height="10.96" rx="1.04" style="fill: none; stroke: #000000" /><rect x="90.90" y="18.33" width="4.16" height="10.96" rx="1.04" style="fill: none; stroke: #000000" /></g>
    <g><rect x="102.24" y="18.33" width="4.16" height="10.96" rx="1.04" style="fill: none; stroke: #000000" /><rect x="123.78" y="18.33" width="4.16" height="10.96" rx="1.04" style="fill: none; stroke: #000000" /></g>
    <g><rect x="135.12" y="18.33" width="4.16" height="10.96" rx="1.04" style="fill: none; stroke: #000000" /><rect x="156.66" y="18.33" width="4.16" height="10.96" rx="1.04" style="fill: none; stroke: #000000" /></g>
    <g><rect x="168.00" y="18.33" width="4.16" height="10.96" rx="1.04" style="fill: none; stroke: #000000" /><rect x="189.54" y="18.33" width="4.16" height="10.96" rx="1.04" style="fill: none; stroke: #000000" /></g>
    <g><rect x="200.88" y="18.33" width="4.16" height="10.96" rx="1.04" style="fill: none; stroke: #000000" /><rect x="222.43" y="18.33" width="4.16" height="10.96" rx="1.04" style="fill: none; stroke: #000000" /></g>
    <g><rect x="3.59" y="34.20" width="4.16" height="10.96" rx="1.04" style="fill: none; stroke: #000000" /><rect x="25.13" y="34.20" width="4.16" height="10.96" rx="1.04" style="fill: none; stroke: #000000" /></g>
    <g><rect x="36.47" y="34.20" width="4.16" height="10.96" rx="1.04" style="fill: none; stroke: #000000" /><rect x="58.02" y="34.20" width="4.16" height="10.96" rx="1.04" style="fill: none; stroke: #000000" /></g>
    <g><rect x="69.35" y="34.20" width="4.16" height="10.96" rx="1.04" style="fill: none; stroke: #000000" /><rect x="90.90" y="34.20" width="4.16" height="10.96" rx="1.04" style="fill: none; stroke: #000000" /></g>
    <g><rect x="102.24" y="34.20" width="4.16" height="10.96" rx="1.04" style="fill: none; stroke: #000000" /><rect x="123.78" y="34.20" width="4.16" height="10.96" rx="1.04" style="fill: none; stroke: #000000" /></g>
    <g><rect x="135.12" y="34.20" width="4.16" height="10.96" rx="1.04" style="fill: none; stroke: #000000" /><rect x="156.66" y="34.20" width="4.16" height="10.96" rx="1.04" style="fill: none; stroke: #000000" /></g>
    <g><rect x="168.00" y="34.20" width="4.16" height="10.96" rx="1.04" style="fill: none; stroke: #000000" /><rect x="189.54" y="34.20" width="4.16" height="10.96" rx="1.04" style="fill: none; stroke: #000000" /></g>
    <g><rect x="200.88" y="34.20" width="4.16" height="10.96" rx="1.04" style="fill: none; stroke: #000000" /><rect x="222.43" y="34.20" width="4.16" height="10.96" rx="1.04" style="fill: none; stroke: #000000" /></g>
    <g><rect x="3.59" y="50.08" width="4.16" height="10.96" rx="1.04" style="fill: none; stroke: #000000" /><rect x="25.13" y="50.08" width="4.16" height="10.96" rx="1.04" style="fill: none; stroke: #000000" /></g>
    <g><rect x="36.47" y="50.08" width="4.16" height="10.96" rx="1.04" style="fill: none; stroke: #000000" /><rect x="58.02" y="50.08" width="4.16" height="10.96" rx="1.04" style="fill: none; stroke: #000000" /></g>
    <g><rect x="69.35" y="50.08" width="4.16" height="10.96" rx="1.04" style="fill: none; stroke: #000000" /><rect x="90.90" y="50.08" width="4.16" height="10.96" rx="1.04" style="fill: none; stroke: #000000" /></g>
    <g><rect x="102.24" y="50.08" width="4.16" height="10.96" rx="1.04" style="fill: none; stroke: #000000" /><rect x="123.78" y="50.08" width="4.16" height="10.96" rx="1.04" style="fill: none; stroke: #000000" /></g>
    <g><rect x="135.12" y="50.08" width="4.16" height="10.96" rx="1.04" style="fill: none; stroke: #000000" /><rect x="156.66" y="50.08" width="4.16" height="10.96" rx="1.04" style="fill: none; stroke: #000000" /></g>
    <g><rect x="168.00" y="50.08" width="4.16" height="10.96" rx="1.04" style="fill: none; stroke: #000000" /><rect x="189.54" y="50.08" width="4.16" height="10.96" rx="1.04" style="fill: none; stroke: #000000" /></g>
    <g><rect x="200.88" y="50.08" width="4.16" height="10.96" rx="1.04" style="fill: none; stroke: #000000" /><rect x="222.43" y="50.08" width="4.16" height="10.96" rx="1.04" style="fill: none; stroke: #000000" /></g>
    <g><rect x="3.59" y="65.95" width="4.16" height="10.96" rx="1.04" style="fill: none; stroke: #000000" /><rect x="25.13" y="65.95" width="4.16" height="10.96" rx="1.04" style="fill: none; stroke: #000000" /></g>
    <g><rect x="36.47" y="65.95" width="4.16" height="10.96" rx="1.04" style="fill: none; stroke: #000000" /><rect x="58.02" y="65.95" width="4.16" height="10.96" rx="1.04" style="fill: none; stroke: #000000" /></g>
    <g><rect x="69.35" y="65.95" width="4.16" height="10.96" rx="1.04" style="fill: none; stroke: #000000" /><rect x="90.90" y="65.95" width="4.16" height="10.96" rx="1.04" style="fill: none; stroke: #000000" /></g>
    <g><rect x="102.24" y="65.95" width="4.16" height="10.96" rx="1.04" style="fill: none; stroke: #000000" /><rect x="123.78" y="65.95" width="4.16" height="10.96" rx="1.04" style="fill: none; stroke: #000000" /></g>
    <g><rect x="135.12" y="65.95" width="4.16" height="10.96" rx="1.04" style="fill: none; stroke: #000000" /><rect x="156.66" y="65.95" width="4.16" height="10.96" rx="1.04" style="fill: none; stroke: #000000" /></g>
    <g><rect x="168.00" y="65.95" width="4.16" height="10.96" rx="1.04" style="fill: none; stroke: #000000" /><rect x="189.54" y="65.95" width="4.16" height="10.96" rx="1.04" style="fill: none; stroke: #000000" /></g>
    <g><rect x="200.88" y="65.95" width="4.16" height="10.96" rx="1.04" style="fill: none; stroke: #000000" /><rect x="222.43" y="65.95" width="4.16" height="10.96" rx="1.04" style="fill: none; stroke: #000000" /></g>
    <g><rect x="3.59" y="81.83" width="4.16" height="10.96" rx="1.04" style="fill: none; stroke: #000000" /><rect x="25.13" y="81.83" width="4.16" height="10.96" rx="1.04" style="fill: none; stroke: #000000" /></g>
    <g><rect x="36.47" y="81.83" width="4.16" height="10.96" rx="1.04" style="fill: none; stroke: #000000" /><rect x="58.02" y="81.83" width="4.16" height="10.96" rx="1.04" style="fill: none; stroke: #000000" /></g>
    <g><rect x="69.35" y="81.83" width="4.16" height="10.96" rx="1.04" style="fill: none; stroke: #000000" /><rect x="90.90" y="81.83" width="4.16" height="10.96" rx="1.04" style="fill: none; stroke: #000000" /></g>
    <g><rect x="102.24" y="81.83" width="4.16" height="10.96" rx="1.04" style="fill: none; stroke: #000000" /><rect x="123.78" y="81.83" width="4.16" height="10.96" rx="1.04" style="fill: none; stroke: #000000" /></g>
    <g><rect x="135.12" y="81.83" width="4.16" height="10.96" rx="1.04" style="fill: none; stroke: #000000" /><rect x="156.66" y="81.83" width="4.16" height="10.96" rx="1.04" style="fill: none; stroke: #000000" /></g>
    <g><rect x="168.00" y="81.83" width="4.16" height="10.96" rx="1.04" style="fill: none; stroke: #000000" /><rect x="189.54" y="81.83" width="4.16" height="10.96" rx="1.04" style="fill: none; stroke: #000000" /></g>
    <g><rect x="200.88" y="81.83" width="4.16" height="10.96" rx="1.04" style="fill: none; stroke: #000000" /><rect x="222.43" y="81.83" width="4.16" height="10.96" rx="1.04" style="fill: none; stroke: #000000" /></g>
    <g><rect x="3.59" y="97.70" width="4.16" height="10.96" rx="1.04" style="fill: none; stroke: #000000" /><rect x="25.13" y="97.70" width="4.16" height="10.96" rx="1.04" style="fill: none; stroke: #000000" /></g>
    <g><rect x="36.47" y="97.70" width="4.16" height="10.96" rx="1.04" style="fill: none; stroke: #000000" /><rect x="58.02" y="97.70" width="4.16" height="10.96" rx="1.04" style="fill: none; stroke: #000000" /></g>
    <g><rect x="69.35" y="97.70" width="4.16" height="10.96" rx="1.04" style="fill: none; stroke: #000000" /><rect x="90.90" y="97.70" width="4.16" height="10.96" rx="1.04" style="fill: none; stroke: #000000" /></g>
    <g><rect x="102.24" y="97.70" width="4.16" height="10.96" rx="1.04" style="fill: none; stroke: #000000" /><rect x="123.78" y="97.70" width="4.16" height="10.96" rx="1.04" style="fill: none; stroke: #000000" /></g>
    <g><rect x="135.12" y="97.70" width="4.16" height="10.96" rx="1.04" style="fill: none; stroke: #000000" /><rect x="156.66" y="97.70" width="4.16" height="10.96" rx="1.04" style="fill: none; stroke: #000000" /></g>
    <g><rect x="168.00" y="97.70" width="4.16" height="10.96" rx="1.04" style="fill: none; stroke: #000000" /><rect x="189.54" y="97.70" width="4.16" height="10.96" rx="1.04" style="fill: none; stroke: #000000" /></g>
    <g><rect x="200.88" y="97.70" width="4.16" height="10.96" rx="1.04" style="fill: none; stroke: #000000" /><rect x="222.43" y="97.70" width="4.16" height="10.96" rx="1.04" style="fill: none; stroke: #000000" /></g>
    <g><rect x="3.59" y="113.57" width="4.16" height="10.96" rx="1.04" style="fill: none; stroke: #000000" /><rect x="25.13" y="113.57" width="4.16" height="10.96" rx="1.04" style="fill: none; stroke: #000000" /></g>
    <g><rect x="36.47" y="113.57" width="4.16" height="10.96" rx="1.04" style="fill: none; stroke: #000000" /><rect x="58.02" y="113.57" width="4.16" height="10.96" rx="1.04" style="fill: none; stroke: #000000" /></g>
    <g><rect x="69.35" y="113.57" width="4.16" height="10.96" rx="1.04" style="fill: none; stroke: #000000" /><rect x="90.90" y="113.57" width="4.16" height="10.96" rx="1.04" style="fill: none; stroke: #000000" /></g>
    <g><rect x="102.24" y="113.57" width="4.16" height="10.96" rx="1.04" style="fill: none; stroke: #000000" /><rect x="123.78" y="113.57" width="4.16" height="10.96" rx="1.04" style="fill: none; stroke: #000000" /></g>
    <g><rect x="135.12" y="113.57" width="4.16" height="10.96" rx="1.04" style="fill: none; stroke: #000000" /><rect x="156.66" y="113.57" width="4.16" height="10.96" rx="1.04" style="fill: none; stroke: #000000" /></g>
    <g><rect x="168.00" y="113.57" width="4.16" height="10.96" rx="1.04" style="fill: none; stroke: #000000" /><rect x="189.54" y="113.57" width="4.16" height="10.96" rx="1.04" style="fill: none; stroke: #000000" /></g>
    <g><rect x="200.88" y="113.57" width="4.16" height="10.96" rx="1.04" style="fill: none; stroke: #000000" /><rect x="222.43" y="113.57" width="4.16" height="10.96" rx="1.04" style="fill: none; stroke: #000000" /></g>
  </g>
</svg>
    