
<svg viewbox="0 0 232.44 187.09"
     width="232.44"
     height="187.09"
     xmlns="http://www.w3.org/2000/svg">
  <g transform="translate(14.17, 14.17)">
    <line x1="0.57" y1="0.00" x2="33.45" y2="0.00" stroke="#000" />
    <line x1="34.58" y1="0.00" x2="67.46" y2="0.00" stroke="#000" />
    <line x1="68.60" y1="0.00" x2="101.48" y2="0.00" stroke="#000" />
    <line x1="102.61" y1="0.00" x2="135.50" y2="0.00" stroke="#000" />
    <line x1="136.63" y1="0.00" x2="169.51" y2="0.00" stroke="#000" />
    <line x1="170.65" y1="0.00" x2="203.53" y2="0.00" stroke="#000" />
    <line x1="0.57" y1="22.68" x2="33.45" y2="22.68" stroke="#000" />
    <line x1="34.58" y1="22.68" x2="67.46" y2="22.68" stroke="#000" />
    <line x1="68.60" y1="22.68" x2="101.48" y2="22.68" stroke="#000" />
    <line x1="102.61" y1="22.68" x2="135.50" y2="22.68" stroke="#000" />
    <line x1="136.63" y1="22.68" x2="169.51" y2="22.68" stroke="#000" />
    <line x1="170.65" y1="22.68" x2="203.53" y2="22.68" stroke="#000" />
    <line x1="0.57" y1="45.35" x2="33.45" y2="45.35" stroke="#000" />
    <line x1="34.58" y1="45.35" x2="67.46" y2="45.35" stroke="#000" />
    <line x1="68.60" y1="45.35" x2="101.48" y2="45.35" stroke="#000" />
    <line x1="102.61" y1="45.35" x2="135.50" y2="45.35" stroke="#000" />
    <line x1="136.63" y1="45.35" x2="169.51" y2="45.35" stroke="#000" />
    <line x1="170.65" y1="45.35" x2="203.53" y2="45.35" stroke="#000" />
    <line x1="0.57" y1="68.03" x2="33.45" y2="68.03" stroke="#000" />
    <line x1="34.58" y1="68.03" x2="67.46" y2="68.03" stroke="#000" />
    <line x1="68.60" y1="68.03" x2="101.48" y2="68.03" stroke="#000" />
    <line x1="102.61" y1="68.03" x2="135.50" y2="68.03" stroke="#000" />
    <line x1="136.63" y1="68.03" x2="169.51" y2="68.03" stroke="#000" />
    <line x1="170.65" y1="68.03" x2="203.53" y2="68.03" stroke="#000" />
    <line x1="0.57" y1="90.71" x2="33.45" y2="90.71" stroke="#000" />
    <line x1="34.58" y1="90.71" x2="67.46" y2="90.71" stroke="#000" />
    <line x1="68.60" y1="90.71" x2="101.48" y2="90.71" stroke="#000" />
    <line x1="102.61" y1="90.71" x2="135.50" y2="90.71" stroke="#000" />
    <line x1="136.63" y1="90.71" x2="169.51" y2="90.71" stroke="#000" />
    <line x1="170.65" y1="90.71" x2="203.53" y2="90.71" stroke="#000" />
    <line x1="0.57" y1="113.39" x2="33.45" y2="113.39" stroke="#000" />
    <line x1="34.58" y1="113.39" x2="67.46" y2="113.39" stroke="#000" />
    <line x1="68.60" y1="113.39" x2="101.48" y2="113.39" stroke="#000" />
    <line x1="102.61" y1="113.39" x2="135.50" y2="113.39" stroke="#000" />
    <line x1="136.63" y1="113.39" x2="169.51" y2="113.39" stroke="#000" />
    <line x1="170.65" y1="113.39" x2="203.53" y2="113.39" stroke="#000" />
    <line x1="0.57" y1="136.06" x2="33.45" y2="136.06" stroke="#000" />
    <line x1="34.58" y1="136.06" x2="67.46" y2="136.06" stroke="#000" />
    <line x1="68.60" y1="136.06" x2="101.48" y2="136.06" stroke="#000" />
    <line x1="102.61" y1="136.06" x2="135.50" y2="136.06" stroke="#000" />
    <line x1="136.63" y1="136.06" x2="169.51" y2="136.06" stroke="#000" />
    <line x1="170.65" y1="136.06" x2="203.53" y2="136.06" stroke="#000" />
    <line x1="0.57" y1="158.74" x2="33.45" y2="158.74" stroke="#000" />
    <line x1="34.58" y1="158.74" x2="67.46" y2="158.74" stroke="#000" />
    <line x1="68.60" y1="158.74" x2="101.48" y2="158.74" stroke="#000" />
    <line x1="102.61" y1="158.74" x2="135.50" y2="158.74" stroke="#000" />
    <line x1="136.63" y1="158.74" x2="169.51" y2="158.74" stroke="#000" />
    <line x1="170.65" y1="158.74" x2="203.53" y2="158.74" stroke="#000" />

    <line x1="0.00" y1="0.57" x2="0.00" y2="22.11" stroke="#000" />
    <line x1="34.02" y1="0.57" x2="34.02" y2="22.11" stroke="#000" />
    <line x1="68.03" y1="0.57" x2="68.03" y2="22.11" stroke="#000" />
    <line x1="102.05" y1="0.57" x2="102.05" y2="22.11" stroke="#000" />
    <line x1="136.06" y1="0.57" x2="136.06" y2="22.11" stroke="#000" />
    <line x1="170.08" y1="0.57" x2="170.08" y2="22.11" stroke="#000" />
    <line x1="204.09" y1="0.57" x2="204.09" y2="22.11" stroke="#000" />
    <line x1="0.00" y1="23.24" x2="0.00" y2="44.79" stroke="#000" />
    <line x1="34.02" y1="23.24" x2="34.02" y2="44.79" stroke="#000" />
    <line x1="68.03" y1="23.24" x2="68.03" y2="44.79" stroke="#000" />
    <line x1="102.05" y1="23.24" x2="102.05" y2="44.79" stroke="#000" />
    <line x1="136.06" y1="23.24" x2="136.06" y2="44.79" stroke="#000" />
    <line x1="170.08" y1="23.24" x2="170.08" y2="44.79" stroke="#000" />
    <line x1="204.09" y1="23.24" x2="204.09" y2="44.79" stroke="#000" />
    <line x1="0.00" y1="45.92" x2="0.00" y2="67.46" stroke="#000" />
    <line x1="34.02" y1="45.92" x2="34.02" y2="67.46" stroke="#000" />
    <line x1="68.03" y1="45.92" x2="68.03" y2="67.46" stroke="#000" />
    <line x1="102.05" y1="45.92" x2="102.05" y2="67.46" stroke="#000" />
    <line x1="136.06" y1="45.92" x2="136.06" y2="67.46" stroke="#000" />
    <line x1="170.08" y1="45.92" x2="170.08" y2="67.46" stroke="#000" />
    <line x1="204.09" y1="45.92" x2="204.09" y2="67.46" stroke="#000" />
    <line x1="0.00" y1="68.60" x2="0.00" y2="90.14" stroke="#000" />
    <line x1="34.02" y1="68.60" x2="34.02" y2="90.14" stroke="#000" />
    <line x1="68.03" y1="68.60" x2="68.03" y2="90.14" stroke="#000" />
    <line x1="102.05" y1="68.60" x2="102.05" y2="90.14" stroke="#000" />
    <line x1="136.06" y1="68.60" x2="136.06" y2="90.14" stroke="#000" />
    <line x1="170.08" y1="68.60" x2="170.08" y2="90.14" stroke="#000" />
    <line x1="204.09" y1="68.60" x2="204.09" y2="90.14" stroke="#000" />
    <line x1="0.00" y1="91.28" x2="0.00" y2="112.82" stroke="#000" />
    <line x1="34.02" y1="91.28" x2="34.02" y2="112.82" stroke="#000" />
    <line x1="68.03" y1="91.28" x2="68.03" y2="112.82" stroke="#000" />
    <line x1="102.05" y1="91.28" x2="102.05" y2="112.82" stroke="#000" />
    <line x1="136.06" y1="91.28" x2="136.06" y2="112.82" stroke="#000" />
    <line x1="170.08" y1="91.28" x2="170.08" y2="112.82" stroke="#000" />
    <line x1="204.09" y1="91.28" x2="204.09" y2="112.82" stroke="#000" />
    <line x1="0.00" y1="113.95" x2="0.00" y2="135.50" stroke="#000" />
    <line x1="34.02" y1="113.95" x2="34.02" y2="135.50" stroke="#000" />
    <line x1="68.03" y1="113.95" x2="68.03" y2="135.50" stroke="#000" />
    <line x1="102.05" y1="113.95" x2="102.05" y2="135.50" stroke="#000" />
    <line x1="136.06" y1="113.95" x2="136.06" y2="135.50" stroke="#000" />
    <line x1="170.08" y1="113.95" x2="170.08" y2="135.50" stroke="#000" />
    <line x1="204.09" y1="113.95" x2="204.09" y2="135.50" stroke="#000" />
    <line x1="0.00" y1="136.63" x2="0.00" y2="158.17" stroke="#000" />
    <line x1="34.02" y1="136.63" x2="34.02" y2="158.17" stroke="#000" />
    <line x1="68.03" y1="136.63" x2="68.03" y2="158.17" stroke="#000" />
    <line x1="102.05" y1="136.63" x2="102.05" y2="158.17" stroke="#000" />
    <line x1="136.06" y1="136.63" x2="136.06" y2="158.17" stroke="#000" />
    <line x1="170.08" y1="136.63" x2="170.08" y2="158.17" stroke="#000" />
    <line x1="204.09" y1="136.63" x2="204.09" y2="158.17" stroke="#000" />

    <g><rect x="7.23" y="7.09" width="3.40" height="8.50" rx="0.85" style="fill: none; stroke: #0072B2" /><rect x="23.39" y="7.09" width="3.40" height="8.50" rx="0.85" style="fill: none; stroke: #0072B2" /></g>
    <g><rect x="41.24" y="7.09" width="3.40" height="8.50" rx="0.85" style="fill: none; stroke: #0072B2" /><rect x="57.40" y="7.09" width="3.40" height="8.50" rx="0.85" style="fill: none; stroke: #0072B2" /></g>
    <g><rect x="75.26" y="7.09" width="3.40" height="8.50" rx="0.85" style="fill: none; stroke: #0072B2" /><rect x="91.42" y="7.09" width="3.40" height="8.50" rx="0.85" style="fill: none; stroke: #0072B2" /></g>
    <g><rect x="109.28" y="7.09" width="3.40" height="8.50" rx="0.85" style="fill: none; stroke: #0072B2" /><rect x="125.43" y="7.09" width="3.40" height="8.50" rx="0.85" style="fill: none; stroke: #0072B2" /></g>
    <g><rect x="143.29" y="7.09" width="3.40" height="8.50" rx="0.85" style="fill: none; stroke: #0072B2" /><rect x="159.45" y="7.09" width="3.40" height="8.50" rx="0.85" style="fill: none; stroke: #0072B2" /></g>
    <g><rect x="177.31" y="7.09" width="3.40" height="8.50" rx="0.85" style="fill: none; stroke: #0072B2" /><rect x="193.46" y="7.09" width="3.40" height="8.50" rx="0.85" style="fill: none; stroke: #0072B2" /></g>
    <g><rect x="7.23" y="29.76" width="3.40" height="8.50" rx="0.85" style="fill: none; stroke: #0072B2" /><rect x="23.39" y="29.76" width="3.40" height="8.50" rx="0.85" style="fill: none; stroke: #0072B2" /></g>
    <g><rect x="41.24" y="29.76" width="3.40" height="8.50" rx="0.85" style="fill: none; stroke: #0072B2" /><rect x="57.40" y="29.76" width="3.40" height="8.50" rx="0.85" style="fill: none; stroke: #0072B2" /></g>
    <g><rect x="75.26" y="29.76" width="3.40" height="8.50" rx="0.85" style="fill: none; stroke: #0072B2" /><rect x="91.42" y="29.76" width="3.40" height="8.50" rx="0.85" style="fill: none; stroke: #0072B2" /></g>
    <g><rect x="109.28" y="29.76" width="3.40" height="8.50" rx="0.85" style="fill: none; stroke: #0072B2" /><rect x="125.43" y="29.76" width="3.40" height="8.50" rx="0.85" style="fill: none; stroke: #0072B2" /></g>
    <g><rect x="143.29" y="29.76" width="3.40" height="8.50" rx="0.85" style="fill: none; stroke: #0072B2" /><rect x="159.45" y="29.76" width="3.40" height="8.50" rx="0.85" style="fill: none; stroke: #0072B2" /></g>
    <g><rect x="177.31" y="29.76" width="3.40" height="8.50" rx="0.85" style="fill: none; stroke: #0072B2" /><rect x="193.46" y="29.76" width="3.40" height="8.50" rx="0.85" style="fill: none; stroke: #0072B2" /></g>
    <g><rect x="7.23" y="52.44" width="3.40" height="8.50" rx="0.85" style="fill: none; stroke: #0072B2" /><rect x="23.39" y="52.44" width="3.40" height="8.50" rx="0.85" style="fill: none; stroke: #0072B2" /></g>
    <g><rect x="41.24" y="52.44" width="3.40" height="8.50" rx="0.85" style="fill: none; stroke: #0072B2" /><rect x="57.40" y="52.44" width="3.40" height="8.50" rx="0.85" style="fill: none; stroke: #0072B2" /></g>
    <g><rect x="75.26" y="52.44" width="3.40" height="8.50" rx="0.85" style="fill: none; stroke: #0072B2" /><rect x="91.42" y="52.44" width="3.40" height="8.50" rx="0.85" style="fill: none; stroke: #0072B2" /></g>
    <g><rect x="109.28" y="52.44" width="3.40" height="8.50" rx="0.85" style="fill: none; stroke: #0072B2" /><rect x="125.43" y="52.44" width="3.40" height="8.50" rx="0.85" style="fill: none; stroke: #0072B2" /></g>
    <g><rect x="143.29" y="52.44" width="3.40" height="8.50" rx="0.85" style="fill: none; stroke: #0072B2" /><rect x="159.45" y="52.44" width="3.40" height="8.50" rx="0.85" style="fill: none; stroke: #0072B2" /></g>
    <g><rect x="177.31" y="52.44" width="3.40" height="8.50" rx="0.85" style="fill: none; stroke: #0072B2" /><rect x="193.46" y="52.44" width="3.40" height="8.50" rx="0.85" style="fill: none; stroke: #0072B2" /></g>
    <g><rect x="7.23" y="75.12" width="3.40" height="8.50" rx="0.85" style="fill: none; stroke: #0072B2" /><rect x="23.39" y="75.12" width="3.40" height="8.50" rx="0.85" style="fill: none; stroke: #0072B2" /></g>
    <g><rect x="41.24" y="75.12" width="3.40" height="8.50" rx="0.85" style="fill: none; stroke: #0072B2" /><rect x="57.40" y="75.12" width="3.40" height="8.50" rx="0.85" style="fill: none; stroke: #0072B2" /></g>
    <g><rect x="75.26" y="75.12" width="3.40" height="8.50" rx="0.85" style="fill: none; stroke: #0072B2" /><rect x="91.42" y="75.12" width="3.40" height="8.50" rx="0.85" style="fill: none; stroke: #0072B2" /></g>
    <g><rect x="109.28" y="75.12" width="3.40" height="8.50" rx="0.85" style="fill: none; stroke: #0072B2" /><rect x="125.43" y="75.12" width="3.40" height="8.50" rx="0.85" style="fill: none; stroke: #0072B2" /></g>
    <g><rect x="143.29" y="75.12" width="3.40" height="8.50" rx="0.85" style="fill: none; stroke: #0072B2" /><rect x="159.45" y="75.12" width="3.40" height="8.50" rx="0.85" style="fill: none; stroke: #0072B2" /></g>
    <g><rect x="177.31" y="75.12" width="3.40" height="8.50" rx="0.85" style="fill: none; stroke: #0072B2" /><rect x="193.46" y="75.12" width="3.40" height="8.50" rx="0.85" style="fill: none; stroke: #0072B2" /></g>
    <g><rect x="7.23" y="97.80" width="3.40" height="8.50" rx="0.85" style="fill: none; stroke: #0072B2" /><rect x="23.39" y="97.80" width="3.40" height="8.50" rx="0.85" style="fill: none; stroke: #0072B2" /></g>
    <g><rect x="41.24" y="97.80" width="3.40" height="8.50" rx="0.85" style="fill: none; stroke: #0072B2" /><rect x="57.40" y="97.80" width="3.40" height="8.50" rx="0.85" style="fill: none; stroke: #0072B2" /></g>
    <g><rect x="75.26" y="97.80" width="3.40" height="8.50" rx="0.85" style="fill: none; stroke: #0072B2" /><rect x="91.42" y="97.80" width="3.40" height="8.50" rx="0.85" style="fill: none; stroke: #0072B2" /></g>
    <g><rect x="109.28" y="97.80" width="3.40" height="8.50" rx="0.85" style="fill: none; stroke: #0072B2" /><rect x="125.43" y="97.80" width="3.40" height="8.50" rx="0.85" style="fill: none; stroke: #0072B2" /></g>
    <g><rect x="143.29" y="97.80" width="3.40" height="8.50" rx="0.85" style="fill: none; stroke: #0072B2" /><rect x="159.45" y="97.80" width="3.40" height="8.50" rx="0.85" style="fill: none; stroke: #0072B2" /></g>
    <g><rect x="177.31" y="97.80" width="3.40" height="8.50" rx="0.85" style="fill: none; stroke: #0072B2" /><rect x="193.46" y="97.80" width="3.40" height="8.50" rx="0.85" style="fill: none; stroke: #0072B2" /></g>
    <g><rect x="7.23" y="120.47" width="3.40" height="8.50" rx="0.85" style="fill: none; stroke: #0072B2" /><rect x="23.39" y="120.47" width="3.40" height="8.50" rx="0.85" style="fill: none; stroke: #0072B2" /></g>
    <g><rect x="41.24" y="120.47" width="3.40" height="8.50" rx="0.85" style="fill: none; stroke: #0072B2" /><rect x="57.40" y="120.47" width="3.40" height="8.50" rx="0.85" style="fill: none; stroke: #0072B2" /></g>
    <g><rect x="75.26" y="120.47" width="3.40" height="8.50" rx="0.85" style="fill: none; stroke: #0072B2" /><rect x="91.42" y="120.47" width="3.40" height="8.50" rx="0.85" style="fill: none; stroke: #0072B2" /></g>
    <g><rect x="109.28" y="120.47" width="3.40" height="8.50" rx="0.85" style="fill: none; stroke: #0072B2" /><rect x="125.43" y="120.47" width="3.40" height="8.50" rx="0.85" style="fill: none; stroke: #0072B2" /></g>
    <g><rect x="143.29" y="120.47" width="3.40" height="8.50" rx="0.85" style="fill: none; stroke: #0072B2" /><rect x="159.45" y="120.47" width="3.40" height="8.50" rx="0.85" style="fill: none; stroke: #0072B2" /></g>
    <g><rect x="177.31" y="120.47" width="3.40" height="8.50" rx="0.85" style="fill: none; stroke: #0072B2" /><rect x="193.46" y="120.47" width="3.40" height="8.50" rx="0.85" style="fill: none; stroke: #0072B2" /></g>
    <g><rect x="7.23" y="143.15" width="3.40" height="8.50" rx="0.85" style="fill: none; stroke: #0072B2" /><rect x="23.39" y="143.15" width="3.40" height="8.50" rx="0.85" style="fill: none; stroke: #0072B2" /></g>
    <g><rect x="41.24" y="143.15" width="3.40" height="8.50" rx="0.85" style="fill: none; stroke: #0072B2" /><rect x="57.40" y="143.15" width="3.40" height="8.50" rx="0.85" style="fill: none; stroke: #0072B2" /></g>
    <g><rect x="75.26" y="143.15" width="3.40" height="8.50" rx="0.85" style="fill: none; stroke: #0072B2" /><rect x="91.42" y="143.15" width="3.40" height="8.50" rx="0.85" style="fill: none; stroke: #0072B2" /></g>
    <g><rect x="109.28" y="143.15" width="3.40" height="8.50" rx="0.85" style="fill: none; stroke: #0072B2" /><rect x="125.43" y="143.15" width="3.40" height="8.50" rx="0.85" style="fill: none; stroke: #0072B2" /></g>
    <g><rect x="143.29" y="143.15" width="3.40" height="8.50" rx="0.85" style="fill: none; stroke: #0072B2" /><rect x="159.45" y="143.15" width="3.40" height="8.50" rx="0.85" style="fill: none; stroke: #0072B2" /></g>
    <g><rect x="177.31" y="143.15" width="3.40" height="8.50" rx="0.85" style="fill: none; stroke: #0072B2" /><rect x="193.46" y="143.15" width="3.40" height="8.50" rx="0.85" style="fill: none; stroke: #0072B2" /></g>
  </g>
</svg>
    