
<svg viewbox="0 0 202.20 133.04"
     width="202.20"
     height="133.04"
     xmlns="http://www.w3.org/2000/svg">
  <g transform="translate(18.90, 18.90)">
    <line x1="0.00" y1="0.00" x2="32.88" y2="0.00" stroke="#0072B2" />
    <line x1="32.88" y1="0.00" x2="65.76" y2="0.00" stroke="#0072B2" />
    <line x1="65.76" y1="0.00" x2="98.65" y2="0.00" stroke="#0072B2" />
    <line x1="98.65" y1="0.00" x2="131.53" y2="0.00" stroke="#0072B2" />
    <line x1="131.53" y1="0.00" x2="164.41" y2="0.00" stroke="#0072B2" />
    <line x1="0.00" y1="15.87" x2="32.88" y2="15.87" stroke="#0072B2" />
    <line x1="32.88" y1="15.87" x2="65.76" y2="15.87" stroke="#0072B2" />
    <line x1="65.76" y1="15.87" x2="98.65" y2="15.87" stroke="#0072B2" />
    <line x1="98.65" y1="15.87" x2="131.53" y2="15.87" stroke="#0072B2" />
    <line x1="131.53" y1="15.87" x2="164.41" y2="15.87" stroke="#0072B2" />
    <line x1="0.00" y1="31.75" x2="32.88" y2="31.75" stroke="#0072B2" />
    <line x1="32.88" y1="31.75" x2="65.76" y2="31.75" stroke="#0072B2" />
    <line x1="65.76" y1="31.75" x2="98.65" y2="31.75" stroke="#0072B2" />
    <line x1="98.65" y1="31.75" x2="131.53" y2="31.75" stroke="#0072B2" />
    <line x1="131.53" y1="31.75" x2="164.41" y2="31.75" stroke="#0072B2" />
    <line x1="0.00" y1="47.62" x2="32.88" y2="47.62" stroke="#0072B2" />
    <line x1="32.88" y1="47.62" x2="65.76" y2="47.62" stroke="#0072B2" />
    <line x1="65.76" y1="47.62" x2="98.65" y2="47.62" stroke="#0072B2" />
    <line x1="98.65" y1="47.62" x2="131.53" y2="47.62" stroke="#0072B2" />
    <line x1="131.53" y1="47.62" x2="164.41" y2="47.62" stroke="#0072B2" />
    <line x1="0.00" y1="63.50" x2="32.88" y2="63.50" stroke="#0072B2" />
    <line x1="32.88" y1="63.50" x2="65.76" y2="63.50" stroke="#0072B2" />
    <line x1="65.76" y1="63.50" x2="98.65" y2="63.50" stroke="#0072B2" />
    <line x1="98.65" y1="63.50" x2="131.53" y2="63.50" stroke="#0072B2" />
    <line x1="131.53" y1="63.50" x2="164.41" y2="63.50" stroke="#0072B2" />
    <line x1="0.00" y1="79.37" x2="32.88" y2="79.37" stroke="#0072B2" />
    <line x1="32.88" y1="79.37" x2="65.76" y2="79.37" stroke="#0072B2" />
    <line x1="65.76" y1="79.37" x2="98.65" y2="79.37" stroke="#0072B2" />
    <line x1="98.65" y1="79.37" x2="131.53" y2="79.37" stroke="#0072B2" />
    <line x1="131.53" y1="79.37" x2="164.41" y2="79.37" stroke="#0072B2" />
    <line x1="0.00" y1="95.24" x2="32.88" y2="95.24" stroke="#0072B2" />
    <line x1="32.88" y1="95.24" x2="65.76" y2="95.24" stroke="#0072B2" />
    <line x1="65.76" y1="95.24" x2="98.65" y2="95.24" stroke="#0072B2" />
    <line x1="98.65" y1="95.24" x2="131.53" y2="95.24" stroke="#0072B2" />
    <line x1="131.53" y1="95.24" x2="164.41" y2="95.24" stroke="#0072B2" />

    <line x1="0.00" y1="0.00" x2="0.00" y2="15.87" stroke="#0072B2" />
    <line x1="32.88" y1="0.00" x2="32.88" y2="15.87" stroke="#0072B2" />
    <line x1="65.76" y1="0.00" x2="65.76" y2="15.87" stroke="#0072B2" />
    <line x1="98.65" y1="0.00" x2="98.65" y2="15.87" stroke="#0072B2" />
    <line x1="131.53" y1="0.00" x2="131.53" y2="15.87" stroke="#0072B2" />
    <line x1="164.41" y1="0.00" x2="164.41" y2="15.87" stroke="#0072B2" />
    <line x1="0.00" y1="15.87" x2="0.00" y2="31.75" stroke="#0072B2" />
    <line x1="32.88" y1="15.87" x2="32.88" y2="31.75" stroke="#0072B2" />
    <line x1="65.76" y1="15.87" x2="65.76" y2="31.75" stroke="#0072B2" />
    <line x1="98.65" y1="15.87" x2="98.65" y2="31.75" stroke="#0072B2" />
    <line x1="131.53" y1="15.87" x2="131.53" y2="31.75" stroke="#0072B2" />
    <line x1="164.41" y1="15.87" x2="164.41" y2="31.75" stroke="#0072B2" />
    <line x1="0.00" y1="31.75" x2="0.00" y2="47.62" stroke="#0072B2" />
    <line x1="32.88" y1="31.75" x2="32.88" y2="47.62" stroke="#0072B2" />
    <line x1="65.76" y1="31.75" x2="65.76" y2="47.62" stroke="#0072B2" />
    <line x1="98.65" y1="31.75" x2="98.65" y2="47.62" stroke="#0072B2" />
    <line x1="131.53" y1="31.75" x2="131.53" y2="47.62" stroke="#0072B2" />
    <line x1="164.41" y1="31.75" x2="164.41" y2="47.62" stroke="#0072B2" />
    <line x1="0.00" y1="47.62" x2="0.00" y2="63.50" stroke="#0072B2" />
    <line x1="32.88" y1="47.62" x2="32.88" y2="63.50" stroke="#0072B2" />
    <line x1="65.76" y1="47.62" x2="65.76" y2="63.50" stroke="#0072B2" />
    <line x1="98.65" y1="47.62" x2="98.65" y2="63.50" stroke="#0072B2" />
    <line x1="131.53" y1="47.62" x2="131.53" y2="63.50" stroke="#0072B2" />
    <line x1="164.41" y1="47.62" x2="164.41" y2="63.50" stroke="#0072B2" />
    <line x1="0.00" y1="63.50" x2="0.00" y2="79.37" stroke="#0072B2" />
    <line x1="32.88" y1="63.50" x2="32.88" y2="79.37" stroke="#0072B2" />
    <line x1="65.76" y1="63.50" x2="65.76" y2="79.37" stroke="#0072B2" />
    <line x1="98.65" y1="63.50" x2="98.65" y2="79.37" stroke="#0072B2" />
    <line x1="131.53" y1="63.50" x2="131.53" y2="79.37" stroke="#0072B2" />
    <line x1="164.41" y1="63.50" x2="164.41" y2="79.37" stroke="#0072B2" />
    <line x1="0.00" y1="79.37" x2="0.00" y2="95.24" stroke="#0072B2" />
    <line x1="32.88" y1="79.37" x2="32.88" y2="95.24" stroke="#0072B2" />
    <line x1="65.76" y1="79.37" x2="65.76" y2="95.24" stroke="#0072B2" />
    <line x1="98.65" y1="79.37" x2="98.65" y2="95.24" stroke="#0072B2" />
    <line x1="131.53" y1="79.37" x2="131.53" y2="95.24" stroke="#0072B2" />
    <line x1="164.41" y1="79.37" x2="164.41" y2="95.24" stroke="#0072B2" />

    <g><rect x="3.59" y="2.46" width="4.16" height="10.96" rx="1.04" style="fill: none; stroke: #00000" /><rect x="25.13" y="2.46" width="4.16" height="10.96" rx="1.04" style="fill: none; stroke: #00000" /></g>
    <g><rect x="36.47" y="2.46" width="4.16" height="10.96" rx="1.04" style="fill: none; stroke: #00000" /><rect x="58.02" y="2.46" width="4.16" height="10.96" rx="1.04" style="fill: none; stroke: #00000" /></g>
    <g><rect x="69.35" y="2.46" width="4.16" height="10.96" rx="1.04" style="fill: none; stroke: #00000" /><rect x="90.90" y="2.46" width="4.16" height="10.96" rx="1.04" style="fill: none; stroke: #00000" /></g>
    <g><rect x="102.24" y="2.46" width="4.16" height="10.96" rx="1.04" style="fill: none; stroke: #00000" /><rect x="123.78" y="2.46" width="4.16" height="10.96" rx="1.04" style="fill: none; stroke: #00000" /></g>
    <g><rect x="135.12" y="2.46" width="4.16" height="10.96" rx="1.04" style="fill: none; stroke: #00000" /><rect x="156.66" y="2.46" width="4.16" height="10.96" rx="1.04" style="fill: none; stroke: #00000" /></g>
    <g><rect x="3.59" y="18.33" width="4.16" height="10.96" rx="1.04" style="fill: none; stroke: #00000" /><rect x="25.13" y="18.33" width="4.16" height="10.96" rx="1.04" style="fill: none; stroke: #00000" /></g>
    <g><rect x="36.47" y="18.33" width="4.16" height="10.96" rx="1.04" style="fill: none; stroke: #00000" /><rect x="58.02" y="18.33" width="4.16" height="10.96" rx="1.04" style="fill: none; stroke: #00000" /></g>
    <g><rect x="69.35" y="18.33" width="4.16" height="10.96" rx="1.04" style="fill: none; stroke: #00000" /><rect x="90.90" y="18.33" width="4.16" height="10.96" rx="1.04" style="fill: none; stroke: #00000" /></g>
    <g><rect x="102.24" y="18.33" width="4.16" height="10.96" rx="1.04" style="fill: none; stroke: #00000" /><rect x="123.78" y="18.33" width="4.16" height="10.96" rx="1.04" style="fill: none; stroke: #00000" /></g>
    <g><rect x="135.12" y="18.33" width="4.16" height="10.96" rx="1.04" style="fill: none; stroke: #00000" /><rect x="156.66" y="18.33" width="4.16" height="10.96" rx="1.04" style="fill: none; stroke: #00000" /></g>
    <g><rect x="3.59" y="34.20" width="4.16" height="10.96" rx="1.04" style="fill: none; stroke: #00000" /><rect x="25.13" y="34.20" width="4.16" height="10.96" rx="1.04" style="fill: none; stroke: #00000" /></g>
    <g><rect x="36.47" y="34.20" width="4.16" height="10.96" rx="1.04" style="fill: none; stroke: #00000" /><rect x="58.02" y="34.20" width="4.16" height="10.96" rx="1.04" style="fill: none; stroke: #00000" /></g>
    <g><rect x="69.35" y="34.20" width="4.16" height="10.96" rx="1.04" style="fill: none; stroke: #00000" /><rect x="90.90" y="34.20" width="4.16" height="10.96" rx="1.04" style="fill: none; stroke: #00000" /></g>
    <g><rect x="102.24" y="34.20" width="4.16" height="10.96" rx="1.04" style="fill: none; stroke: #00000" /><rect x="123.78" y="34.20" width="4.16" height="10.96" rx="1.04" style="fill: none; stroke: #00000" /></g>
    <g><rect x="135.12" y="34.20" width="4.16" height="10.96" rx="1.04" style="fill: none; stroke: #00000" /><rect x="156.66" y="34.20" width="4.16" height="10.96" rx="1.04" style="fill: none; stroke: #00000" /></g>
    <g><rect x="3.59" y="50.08" width="4.16" height="10.96" rx="1.04" style="fill: none; stroke: #00000" /><rect x="25.13" y="50.08" width="4.16" height="10.96" rx="1.04" style="fill: none; stroke: #00000" /></g>
    <g><rect x="36.47" y="50.08" width="4.16" height="10.96" rx="1.04" style="fill: none; stroke: #00000" /><rect x="58.02" y="50.08" width="4.16" height="10.96" rx="1.04" style="fill: none; stroke: #00000" /></g>
    <g><rect x="69.35" y="50.08" width="4.16" height="10.96" rx="1.04" style="fill: none; stroke: #00000" /><rect x="90.90" y="50.08" width="4.16" height="10.96" rx="1.04" style="fill: none; stroke: #00000" /></g>
    <g><rect x="102.24" y="50.08" width="4.16" height="10.96" rx="1.04" style="fill: none; stroke: #00000" /><rect x="123.78" y="50.08" width="4.16" height="10.96" rx="1.04" style="fill: none; stroke: #00000" /></g>
    <g><rect x="135.12" y="50.08" width="4.16" height="10.96" rx="1.04" style="fill: none; stroke: #00000" /><rect x="156.66" y="50.08" width="4.16" height="10.96" rx="1.04" style="fill: none; stroke: #00000" /></g>
    <g><rect x="3.59" y="65.95" width="4.16" height="10.96" rx="1.04" style="fill: none; stroke: #00000" /><rect x="25.13" y="65.95" width="4.16" height="10.96" rx="1.04" style="fill: none; stroke: #00000" /></g>
    <g><rect x="36.47" y="65.95" width="4.16" height="10.96" rx="1.04" style="fill: none; stroke: #00000" /><rect x="58.02" y="65.95" width="4.16" height="10.96" rx="1.04" style="fill: none; stroke: #00000" /></g>
    <g><rect x="69.35" y="65.95" width="4.16" height="10.96" rx="1.04" style="fill: none; stroke: #00000" /><rect x="90.90" y="65.95" width="4.16" height="10.96" rx="1.04" style="fill: none; stroke: #00000" /></g>
    <g><rect x="102.24" y="65.95" width="4.16" height="10.96" rx="1.04" style="fill: none; stroke: #00000" /><rect x="123.78" y="65.95" width="4.16" height="10.96" rx="1.04" style="fill: none; stroke: #00000" /></g>
    <g><rect x="135.12" y="65.95" width="4.16" height="10.96" rx="1.04" style="fill: none; stroke: #00000" /><rect x="156.66" y="65.95" width="4.16" height="10.96" rx="1.04" style="fill: none; stroke: #00000" /></g>
    <g><rect x="3.59" y="81.83" width="4.16" height="10.96" rx="1.04" style="fill: none; stroke: #00000" /><rect x="25.13" y="81.83" width="4.16" height="10.96" rx="1.04" style="fill: none; stroke: #00000" /></g>
    <g><rect x="36.47" y="81.83" width="4.16" height="10.96" rx="1.04" style="fill: none; stroke: #00000" /><rect x="58.02" y="81.83" width="4.16" height="10.96" rx="1.04" style="fill: none; stroke: #00000" /></g>
    <g><rect x="69.35" y="81.83" width="4.16" height="10.96" rx="1.04" style="fill: none; stroke: #00000" /><rect x="90.90" y="81.83" width="4.16" height="10.96" rx="1.04" style="fill: none; stroke: #00000" /></g>
    <g><rect x="102.24" y="81.83" width="4.16" height="10.96" rx="1.04" style="fill: none; stroke: #00000" /><rect x="123.78" y="81.83" width="4.16" height="10.96" rx="1.04" style="fill: none; stroke: #00000" /></g>
    <g><rect x="135.12" y="81.83" width="4.16" height="10.96" rx="1.04" style="fill: none; stroke: #00000" /><rect x="156.66" y="81.83" width="4.16" height="10.96" rx="1.04" style="fill: none; stroke: #00000" /></g>
  </g>
</svg>
    