
<svg viewbox="0 0 202.20 128.50"
     width="202.20"
     height="128.50"
     xmlns="http://www.w3.org/2000/svg">
  <g transform="translate(18.90, 18.90)">
    <line x1="0.57" y1="0.00" x2="32.31" y2="0.00" stroke="#0072B2" />
    <line x1="33.45" y1="0.00" x2="65.20" y2="0.00" stroke="#0072B2" />
    <line x1="66.33" y1="0.00" x2="98.08" y2="0.00" stroke="#0072B2" />
    <line x1="99.21" y1="0.00" x2="130.96" y2="0.00" stroke="#0072B2" />
    <line x1="132.09" y1="0.00" x2="163.84" y2="0.00" stroke="#0072B2" />
    <line x1="0.57" y1="15.12" x2="32.31" y2="15.12" stroke="#0072B2" />
    <line x1="33.45" y1="15.12" x2="65.20" y2="15.12" stroke="#0072B2" />
    <line x1="66.33" y1="15.12" x2="98.08" y2="15.12" stroke="#0072B2" />
    <line x1="99.21" y1="15.12" x2="130.96" y2="15.12" stroke="#0072B2" />
    <line x1="132.09" y1="15.12" x2="163.84" y2="15.12" stroke="#0072B2" />
    <line x1="0.57" y1="30.24" x2="32.31" y2="30.24" stroke="#0072B2" />
    <line x1="33.45" y1="30.24" x2="65.20" y2="30.24" stroke="#0072B2" />
    <line x1="66.33" y1="30.24" x2="98.08" y2="30.24" stroke="#0072B2" />
    <line x1="99.21" y1="30.24" x2="130.96" y2="30.24" stroke="#0072B2" />
    <line x1="132.09" y1="30.24" x2="163.84" y2="30.24" stroke="#0072B2" />
    <line x1="0.57" y1="45.35" x2="32.31" y2="45.35" stroke="#0072B2" />
    <line x1="33.45" y1="45.35" x2="65.20" y2="45.35" stroke="#0072B2" />
    <line x1="66.33" y1="45.35" x2="98.08" y2="45.35" stroke="#0072B2" />
    <line x1="99.21" y1="45.35" x2="130.96" y2="45.35" stroke="#0072B2" />
    <line x1="132.09" y1="45.35" x2="163.84" y2="45.35" stroke="#0072B2" />
    <line x1="0.57" y1="60.47" x2="32.31" y2="60.47" stroke="#0072B2" />
    <line x1="33.45" y1="60.47" x2="65.20" y2="60.47" stroke="#0072B2" />
    <line x1="66.33" y1="60.47" x2="98.08" y2="60.47" stroke="#0072B2" />
    <line x1="99.21" y1="60.47" x2="130.96" y2="60.47" stroke="#0072B2" />
    <line x1="132.09" y1="60.47" x2="163.84" y2="60.47" stroke="#0072B2" />
    <line x1="0.57" y1="75.59" x2="32.31" y2="75.59" stroke="#0072B2" />
    <line x1="33.45" y1="75.59" x2="65.20" y2="75.59" stroke="#0072B2" />
    <line x1="66.33" y1="75.59" x2="98.08" y2="75.59" stroke="#0072B2" />
    <line x1="99.21" y1="75.59" x2="130.96" y2="75.59" stroke="#0072B2" />
    <line x1="132.09" y1="75.59" x2="163.84" y2="75.59" stroke="#0072B2" />
    <line x1="0.57" y1="90.71" x2="32.31" y2="90.71" stroke="#0072B2" />
    <line x1="33.45" y1="90.71" x2="65.20" y2="90.71" stroke="#0072B2" />
    <line x1="66.33" y1="90.71" x2="98.08" y2="90.71" stroke="#0072B2" />
    <line x1="99.21" y1="90.71" x2="130.96" y2="90.71" stroke="#0072B2" />
    <line x1="132.09" y1="90.71" x2="163.84" y2="90.71" stroke="#0072B2" />

    <line x1="0.00" y1="0.57" x2="0.00" y2="14.55" stroke="#0072B2" />
    <line x1="32.88" y1="0.57" x2="32.88" y2="14.55" stroke="#0072B2" />
    <line x1="65.76" y1="0.57" x2="65.76" y2="14.55" stroke="#0072B2" />
    <line x1="98.65" y1="0.57" x2="98.65" y2="14.55" stroke="#0072B2" />
    <line x1="131.53" y1="0.57" x2="131.53" y2="14.55" stroke="#0072B2" />
    <line x1="164.41" y1="0.57" x2="164.41" y2="14.55" stroke="#0072B2" />
    <line x1="0.00" y1="15.69" x2="0.00" y2="29.67" stroke="#0072B2" />
    <line x1="32.88" y1="15.69" x2="32.88" y2="29.67" stroke="#0072B2" />
    <line x1="65.76" y1="15.69" x2="65.76" y2="29.67" stroke="#0072B2" />
    <line x1="98.65" y1="15.69" x2="98.65" y2="29.67" stroke="#0072B2" />
    <line x1="131.53" y1="15.69" x2="131.53" y2="29.67" stroke="#0072B2" />
    <line x1="164.41" y1="15.69" x2="164.41" y2="29.67" stroke="#0072B2" />
    <line x1="0.00" y1="30.80" x2="0.00" y2="44.79" stroke="#0072B2" />
    <line x1="32.88" y1="30.80" x2="32.88" y2="44.79" stroke="#0072B2" />
    <line x1="65.76" y1="30.80" x2="65.76" y2="44.79" stroke="#0072B2" />
    <line x1="98.65" y1="30.80" x2="98.65" y2="44.79" stroke="#0072B2" />
    <line x1="131.53" y1="30.80" x2="131.53" y2="44.79" stroke="#0072B2" />
    <line x1="164.41" y1="30.80" x2="164.41" y2="44.79" stroke="#0072B2" />
    <line x1="0.00" y1="45.92" x2="0.00" y2="59.91" stroke="#0072B2" />
    <line x1="32.88" y1="45.92" x2="32.88" y2="59.91" stroke="#0072B2" />
    <line x1="65.76" y1="45.92" x2="65.76" y2="59.91" stroke="#0072B2" />
    <line x1="98.65" y1="45.92" x2="98.65" y2="59.91" stroke="#0072B2" />
    <line x1="131.53" y1="45.92" x2="131.53" y2="59.91" stroke="#0072B2" />
    <line x1="164.41" y1="45.92" x2="164.41" y2="59.91" stroke="#0072B2" />
    <line x1="0.00" y1="61.04" x2="0.00" y2="75.02" stroke="#0072B2" />
    <line x1="32.88" y1="61.04" x2="32.88" y2="75.02" stroke="#0072B2" />
    <line x1="65.76" y1="61.04" x2="65.76" y2="75.02" stroke="#0072B2" />
    <line x1="98.65" y1="61.04" x2="98.65" y2="75.02" stroke="#0072B2" />
    <line x1="131.53" y1="61.04" x2="131.53" y2="75.02" stroke="#0072B2" />
    <line x1="164.41" y1="61.04" x2="164.41" y2="75.02" stroke="#0072B2" />
    <line x1="0.00" y1="76.16" x2="0.00" y2="90.14" stroke="#0072B2" />
    <line x1="32.88" y1="76.16" x2="32.88" y2="90.14" stroke="#0072B2" />
    <line x1="65.76" y1="76.16" x2="65.76" y2="90.14" stroke="#0072B2" />
    <line x1="98.65" y1="76.16" x2="98.65" y2="90.14" stroke="#0072B2" />
    <line x1="131.53" y1="76.16" x2="131.53" y2="90.14" stroke="#0072B2" />
    <line x1="164.41" y1="76.16" x2="164.41" y2="90.14" stroke="#0072B2" />

    <g><rect x="3.59" y="2.08" width="4.16" height="10.96" rx="1.04" style="fill: none; stroke: #000" /><rect x="25.13" y="2.08" width="4.16" height="10.96" rx="1.04" style="fill: none; stroke: #000" /></g>
    <g><rect x="36.47" y="2.08" width="4.16" height="10.96" rx="1.04" style="fill: none; stroke: #000" /><rect x="58.02" y="2.08" width="4.16" height="10.96" rx="1.04" style="fill: none; stroke: #000" /></g>
    <g><rect x="69.35" y="2.08" width="4.16" height="10.96" rx="1.04" style="fill: none; stroke: #000" /><rect x="90.90" y="2.08" width="4.16" height="10.96" rx="1.04" style="fill: none; stroke: #000" /></g>
    <g><rect x="102.24" y="2.08" width="4.16" height="10.96" rx="1.04" style="fill: none; stroke: #000" /><rect x="123.78" y="2.08" width="4.16" height="10.96" rx="1.04" style="fill: none; stroke: #000" /></g>
    <g><rect x="135.12" y="2.08" width="4.16" height="10.96" rx="1.04" style="fill: none; stroke: #000" /><rect x="156.66" y="2.08" width="4.16" height="10.96" rx="1.04" style="fill: none; stroke: #000" /></g>
    <g><rect x="3.59" y="17.20" width="4.16" height="10.96" rx="1.04" style="fill: none; stroke: #000" /><rect x="25.13" y="17.20" width="4.16" height="10.96" rx="1.04" style="fill: none; stroke: #000" /></g>
    <g><rect x="36.47" y="17.20" width="4.16" height="10.96" rx="1.04" style="fill: none; stroke: #000" /><rect x="58.02" y="17.20" width="4.16" height="10.96" rx="1.04" style="fill: none; stroke: #000" /></g>
    <g><rect x="69.35" y="17.20" width="4.16" height="10.96" rx="1.04" style="fill: none; stroke: #000" /><rect x="90.90" y="17.20" width="4.16" height="10.96" rx="1.04" style="fill: none; stroke: #000" /></g>
    <g><rect x="102.24" y="17.20" width="4.16" height="10.96" rx="1.04" style="fill: none; stroke: #000" /><rect x="123.78" y="17.20" width="4.16" height="10.96" rx="1.04" style="fill: none; stroke: #000" /></g>
    <g><rect x="135.12" y="17.20" width="4.16" height="10.96" rx="1.04" style="fill: none; stroke: #000" /><rect x="156.66" y="17.20" width="4.16" height="10.96" rx="1.04" style="fill: none; stroke: #000" /></g>
    <g><rect x="3.59" y="32.31" width="4.16" height="10.96" rx="1.04" style="fill: none; stroke: #000" /><rect x="25.13" y="32.31" width="4.16" height="10.96" rx="1.04" style="fill: none; stroke: #000" /></g>
    <g><rect x="36.47" y="32.31" width="4.16" height="10.96" rx="1.04" style="fill: none; stroke: #000" /><rect x="58.02" y="32.31" width="4.16" height="10.96" rx="1.04" style="fill: none; stroke: #000" /></g>
    <g><rect x="69.35" y="32.31" width="4.16" height="10.96" rx="1.04" style="fill: none; stroke: #000" /><rect x="90.90" y="32.31" width="4.16" height="10.96" rx="1.04" style="fill: none; stroke: #000" /></g>
    <g><rect x="102.24" y="32.31" width="4.16" height="10.96" rx="1.04" style="fill: none; stroke: #000" /><rect x="123.78" y="32.31" width="4.16" height="10.96" rx="1.04" style="fill: none; stroke: #000" /></g>
    <g><rect x="135.12" y="32.31" width="4.16" height="10.96" rx="1.04" style="fill: none; stroke: #000" /><rect x="156.66" y="32.31" width="4.16" height="10.96" rx="1.04" style="fill: none; stroke: #000" /></g>
    <g><rect x="3.59" y="47.43" width="4.16" height="10.96" rx="1.04" style="fill: none; stroke: #000" /><rect x="25.13" y="47.43" width="4.16" height="10.96" rx="1.04" style="fill: none; stroke: #000" /></g>
    <g><rect x="36.47" y="47.43" width="4.16" height="10.96" rx="1.04" style="fill: none; stroke: #000" /><rect x="58.02" y="47.43" width="4.16" height="10.96" rx="1.04" style="fill: none; stroke: #000" /></g>
    <g><rect x="69.35" y="47.43" width="4.16" height="10.96" rx="1.04" style="fill: none; stroke: #000" /><rect x="90.90" y="47.43" width="4.16" height="10.96" rx="1.04" style="fill: none; stroke: #000" /></g>
    <g><rect x="102.24" y="47.43" width="4.16" height="10.96" rx="1.04" style="fill: none; stroke: #000" /><rect x="123.78" y="47.43" width="4.16" height="10.96" rx="1.04" style="fill: none; stroke: #000" /></g>
    <g><rect x="135.12" y="47.43" width="4.16" height="10.96" rx="1.04" style="fill: none; stroke: #000" /><rect x="156.66" y="47.43" width="4.16" height="10.96" rx="1.04" style="fill: none; stroke: #000" /></g>
    <g><rect x="3.59" y="62.55" width="4.16" height="10.96" rx="1.04" style="fill: none; stroke: #000" /><rect x="25.13" y="62.55" width="4.16" height="10.96" rx="1.04" style="fill: none; stroke: #000" /></g>
    <g><rect x="36.47" y="62.55" width="4.16" height="10.96" rx="1.04" style="fill: none; stroke: #000" /><rect x="58.02" y="62.55" width="4.16" height="10.96" rx="1.04" style="fill: none; stroke: #000" /></g>
    <g><rect x="69.35" y="62.55" width="4.16" height="10.96" rx="1.04" style="fill: none; stroke: #000" /><rect x="90.90" y="62.55" width="4.16" height="10.96" rx="1.04" style="fill: none; stroke: #000" /></g>
    <g><rect x="102.24" y="62.55" width="4.16" height="10.96" rx="1.04" style="fill: none; stroke: #000" /><rect x="123.78" y="62.55" width="4.16" height="10.96" rx="1.04" style="fill: none; stroke: #000" /></g>
    <g><rect x="135.12" y="62.55" width="4.16" height="10.96" rx="1.04" style="fill: none; stroke: #000" /><rect x="156.66" y="62.55" width="4.16" height="10.96" rx="1.04" style="fill: none; stroke: #000" /></g>
    <g><rect x="3.59" y="77.67" width="4.16" height="10.96" rx="1.04" style="fill: none; stroke: #000" /><rect x="25.13" y="77.67" width="4.16" height="10.96" rx="1.04" style="fill: none; stroke: #000" /></g>
    <g><rect x="36.47" y="77.67" width="4.16" height="10.96" rx="1.04" style="fill: none; stroke: #000" /><rect x="58.02" y="77.67" width="4.16" height="10.96" rx="1.04" style="fill: none; stroke: #000" /></g>
    <g><rect x="69.35" y="77.67" width="4.16" height="10.96" rx="1.04" style="fill: none; stroke: #000" /><rect x="90.90" y="77.67" width="4.16" height="10.96" rx="1.04" style="fill: none; stroke: #000" /></g>
    <g><rect x="102.24" y="77.67" width="4.16" height="10.96" rx="1.04" style="fill: none; stroke: #000" /><rect x="123.78" y="77.67" width="4.16" height="10.96" rx="1.04" style="fill: none; stroke: #000" /></g>
    <g><rect x="135.12" y="77.67" width="4.16" height="10.96" rx="1.04" style="fill: none; stroke: #000" /><rect x="156.66" y="77.67" width="4.16" height="10.96" rx="1.04" style="fill: none; stroke: #000" /></g>
  </g>
</svg>
    