
<svg viewbox="0 0 309.92 249.45"
     width="309.92"
     height="249.45"
     xmlns="http://www.w3.org/2000/svg">
  <g transform="translate(18.90, 18.90)">
    <line x1="0.76" y1="0.00" x2="44.60" y2="0.00" stroke="#0072B2" />
    <line x1="46.11" y1="0.00" x2="89.95" y2="0.00" stroke="#0072B2" />
    <line x1="91.46" y1="0.00" x2="135.31" y2="0.00" stroke="#0072B2" />
    <line x1="136.82" y1="0.00" x2="180.66" y2="0.00" stroke="#0072B2" />
    <line x1="182.17" y1="0.00" x2="226.02" y2="0.00" stroke="#0072B2" />
    <line x1="227.53" y1="0.00" x2="271.37" y2="0.00" stroke="#0072B2" />
    <line x1="0.76" y1="30.24" x2="44.60" y2="30.24" stroke="#0072B2" />
    <line x1="46.11" y1="30.24" x2="89.95" y2="30.24" stroke="#0072B2" />
    <line x1="91.46" y1="30.24" x2="135.31" y2="30.24" stroke="#0072B2" />
    <line x1="136.82" y1="30.24" x2="180.66" y2="30.24" stroke="#0072B2" />
    <line x1="182.17" y1="30.24" x2="226.02" y2="30.24" stroke="#0072B2" />
    <line x1="227.53" y1="30.24" x2="271.37" y2="30.24" stroke="#0072B2" />
    <line x1="0.76" y1="60.47" x2="44.60" y2="60.47" stroke="#0072B2" />
    <line x1="46.11" y1="60.47" x2="89.95" y2="60.47" stroke="#0072B2" />
    <line x1="91.46" y1="60.47" x2="135.31" y2="60.47" stroke="#0072B2" />
    <line x1="136.82" y1="60.47" x2="180.66" y2="60.47" stroke="#0072B2" />
    <line x1="182.17" y1="60.47" x2="226.02" y2="60.47" stroke="#0072B2" />
    <line x1="227.53" y1="60.47" x2="271.37" y2="60.47" stroke="#0072B2" />
    <line x1="0.76" y1="90.71" x2="44.60" y2="90.71" stroke="#0072B2" />
    <line x1="46.11" y1="90.71" x2="89.95" y2="90.71" stroke="#0072B2" />
    <line x1="91.46" y1="90.71" x2="135.31" y2="90.71" stroke="#0072B2" />
    <line x1="136.82" y1="90.71" x2="180.66" y2="90.71" stroke="#0072B2" />
    <line x1="182.17" y1="90.71" x2="226.02" y2="90.71" stroke="#0072B2" />
    <line x1="227.53" y1="90.71" x2="271.37" y2="90.71" stroke="#0072B2" />
    <line x1="0.76" y1="120.94" x2="44.60" y2="120.94" stroke="#0072B2" />
    <line x1="46.11" y1="120.94" x2="89.95" y2="120.94" stroke="#0072B2" />
    <line x1="91.46" y1="120.94" x2="135.31" y2="120.94" stroke="#0072B2" />
    <line x1="136.82" y1="120.94" x2="180.66" y2="120.94" stroke="#0072B2" />
    <line x1="182.17" y1="120.94" x2="226.02" y2="120.94" stroke="#0072B2" />
    <line x1="227.53" y1="120.94" x2="271.37" y2="120.94" stroke="#0072B2" />
    <line x1="0.76" y1="151.18" x2="44.60" y2="151.18" stroke="#0072B2" />
    <line x1="46.11" y1="151.18" x2="89.95" y2="151.18" stroke="#0072B2" />
    <line x1="91.46" y1="151.18" x2="135.31" y2="151.18" stroke="#0072B2" />
    <line x1="136.82" y1="151.18" x2="180.66" y2="151.18" stroke="#0072B2" />
    <line x1="182.17" y1="151.18" x2="226.02" y2="151.18" stroke="#0072B2" />
    <line x1="227.53" y1="151.18" x2="271.37" y2="151.18" stroke="#0072B2" />
    <line x1="0.76" y1="181.42" x2="44.60" y2="181.42" stroke="#0072B2" />
    <line x1="46.11" y1="181.42" x2="89.95" y2="181.42" stroke="#0072B2" />
    <line x1="91.46" y1="181.42" x2="135.31" y2="181.42" stroke="#0072B2" />
    <line x1="136.82" y1="181.42" x2="180.66" y2="181.42" stroke="#0072B2" />
    <line x1="182.17" y1="181.42" x2="226.02" y2="181.42" stroke="#0072B2" />
    <line x1="227.53" y1="181.42" x2="271.37" y2="181.42" stroke="#0072B2" />
    <line x1="0.76" y1="211.65" x2="44.60" y2="211.65" stroke="#0072B2" />
    <line x1="46.11" y1="211.65" x2="89.95" y2="211.65" stroke="#0072B2" />
    <line x1="91.46" y1="211.65" x2="135.31" y2="211.65" stroke="#0072B2" />
    <line x1="136.82" y1="211.65" x2="180.66" y2="211.65" stroke="#0072B2" />
    <line x1="182.17" y1="211.65" x2="226.02" y2="211.65" stroke="#0072B2" />
    <line x1="227.53" y1="211.65" x2="271.37" y2="211.65" stroke="#0072B2" />

    <line x1="0.00" y1="0.76" x2="0.00" y2="29.48" stroke="#0072B2" />
    <line x1="45.35" y1="0.76" x2="45.35" y2="29.48" stroke="#0072B2" />
    <line x1="90.71" y1="0.76" x2="90.71" y2="29.48" stroke="#0072B2" />
    <line x1="136.06" y1="0.76" x2="136.06" y2="29.48" stroke="#0072B2" />
    <line x1="181.42" y1="0.76" x2="181.42" y2="29.48" stroke="#0072B2" />
    <line x1="226.77" y1="0.76" x2="226.77" y2="29.48" stroke="#0072B2" />
    <line x1="272.13" y1="0.76" x2="272.13" y2="29.48" stroke="#0072B2" />
    <line x1="0.00" y1="30.99" x2="0.00" y2="59.72" stroke="#0072B2" />
    <line x1="45.35" y1="30.99" x2="45.35" y2="59.72" stroke="#0072B2" />
    <line x1="90.71" y1="30.99" x2="90.71" y2="59.72" stroke="#0072B2" />
    <line x1="136.06" y1="30.99" x2="136.06" y2="59.72" stroke="#0072B2" />
    <line x1="181.42" y1="30.99" x2="181.42" y2="59.72" stroke="#0072B2" />
    <line x1="226.77" y1="30.99" x2="226.77" y2="59.72" stroke="#0072B2" />
    <line x1="272.13" y1="30.99" x2="272.13" y2="59.72" stroke="#0072B2" />
    <line x1="0.00" y1="61.23" x2="0.00" y2="89.95" stroke="#0072B2" />
    <line x1="45.35" y1="61.23" x2="45.35" y2="89.95" stroke="#0072B2" />
    <line x1="90.71" y1="61.23" x2="90.71" y2="89.95" stroke="#0072B2" />
    <line x1="136.06" y1="61.23" x2="136.06" y2="89.95" stroke="#0072B2" />
    <line x1="181.42" y1="61.23" x2="181.42" y2="89.95" stroke="#0072B2" />
    <line x1="226.77" y1="61.23" x2="226.77" y2="89.95" stroke="#0072B2" />
    <line x1="272.13" y1="61.23" x2="272.13" y2="89.95" stroke="#0072B2" />
    <line x1="0.00" y1="91.46" x2="0.00" y2="120.19" stroke="#0072B2" />
    <line x1="45.35" y1="91.46" x2="45.35" y2="120.19" stroke="#0072B2" />
    <line x1="90.71" y1="91.46" x2="90.71" y2="120.19" stroke="#0072B2" />
    <line x1="136.06" y1="91.46" x2="136.06" y2="120.19" stroke="#0072B2" />
    <line x1="181.42" y1="91.46" x2="181.42" y2="120.19" stroke="#0072B2" />
    <line x1="226.77" y1="91.46" x2="226.77" y2="120.19" stroke="#0072B2" />
    <line x1="272.13" y1="91.46" x2="272.13" y2="120.19" stroke="#0072B2" />
    <line x1="0.00" y1="121.70" x2="0.00" y2="150.43" stroke="#0072B2" />
    <line x1="45.35" y1="121.70" x2="45.35" y2="150.43" stroke="#0072B2" />
    <line x1="90.71" y1="121.70" x2="90.71" y2="150.43" stroke="#0072B2" />
    <line x1="136.06" y1="121.70" x2="136.06" y2="150.43" stroke="#0072B2" />
    <line x1="181.42" y1="121.70" x2="181.42" y2="150.43" stroke="#0072B2" />
    <line x1="226.77" y1="121.70" x2="226.77" y2="150.43" stroke="#0072B2" />
    <line x1="272.13" y1="121.70" x2="272.13" y2="150.43" stroke="#0072B2" />
    <line x1="0.00" y1="151.94" x2="0.00" y2="180.66" stroke="#0072B2" />
    <line x1="45.35" y1="151.94" x2="45.35" y2="180.66" stroke="#0072B2" />
    <line x1="90.71" y1="151.94" x2="90.71" y2="180.66" stroke="#0072B2" />
    <line x1="136.06" y1="151.94" x2="136.06" y2="180.66" stroke="#0072B2" />
    <line x1="181.42" y1="151.94" x2="181.42" y2="180.66" stroke="#0072B2" />
    <line x1="226.77" y1="151.94" x2="226.77" y2="180.66" stroke="#0072B2" />
    <line x1="272.13" y1="151.94" x2="272.13" y2="180.66" stroke="#0072B2" />
    <line x1="0.00" y1="182.17" x2="0.00" y2="210.90" stroke="#0072B2" />
    <line x1="45.35" y1="182.17" x2="45.35" y2="210.90" stroke="#0072B2" />
    <line x1="90.71" y1="182.17" x2="90.71" y2="210.90" stroke="#0072B2" />
    <line x1="136.06" y1="182.17" x2="136.06" y2="210.90" stroke="#0072B2" />
    <line x1="181.42" y1="182.17" x2="181.42" y2="210.90" stroke="#0072B2" />
    <line x1="226.77" y1="182.17" x2="226.77" y2="210.90" stroke="#0072B2" />
    <line x1="272.13" y1="182.17" x2="272.13" y2="210.90" stroke="#0072B2" />

    <g><rect x="9.64" y="9.45" width="4.54" height="11.34" rx="1.13" style="fill: none; stroke: #000" /><rect x="31.18" y="9.45" width="4.54" height="11.34" rx="1.13" style="fill: none; stroke: #000" /></g>
    <g><rect x="54.99" y="9.45" width="4.54" height="11.34" rx="1.13" style="fill: none; stroke: #000" /><rect x="76.54" y="9.45" width="4.54" height="11.34" rx="1.13" style="fill: none; stroke: #000" /></g>
    <g><rect x="100.35" y="9.45" width="4.54" height="11.34" rx="1.13" style="fill: none; stroke: #000" /><rect x="121.89" y="9.45" width="4.54" height="11.34" rx="1.13" style="fill: none; stroke: #000" /></g>
    <g><rect x="145.70" y="9.45" width="4.54" height="11.34" rx="1.13" style="fill: none; stroke: #000" /><rect x="167.24" y="9.45" width="4.54" height="11.34" rx="1.13" style="fill: none; stroke: #000" /></g>
    <g><rect x="191.06" y="9.45" width="4.54" height="11.34" rx="1.13" style="fill: none; stroke: #000" /><rect x="212.60" y="9.45" width="4.54" height="11.34" rx="1.13" style="fill: none; stroke: #000" /></g>
    <g><rect x="236.41" y="9.45" width="4.54" height="11.34" rx="1.13" style="fill: none; stroke: #000" /><rect x="257.95" y="9.45" width="4.54" height="11.34" rx="1.13" style="fill: none; stroke: #000" /></g>
    <g><rect x="9.64" y="39.69" width="4.54" height="11.34" rx="1.13" style="fill: none; stroke: #000" /><rect x="31.18" y="39.69" width="4.54" height="11.34" rx="1.13" style="fill: none; stroke: #000" /></g>
    <g><rect x="54.99" y="39.69" width="4.54" height="11.34" rx="1.13" style="fill: none; stroke: #000" /><rect x="76.54" y="39.69" width="4.54" height="11.34" rx="1.13" style="fill: none; stroke: #000" /></g>
    <g><rect x="100.35" y="39.69" width="4.54" height="11.34" rx="1.13" style="fill: none; stroke: #000" /><rect x="121.89" y="39.69" width="4.54" height="11.34" rx="1.13" style="fill: none; stroke: #000" /></g>
    <g><rect x="145.70" y="39.69" width="4.54" height="11.34" rx="1.13" style="fill: none; stroke: #000" /><rect x="167.24" y="39.69" width="4.54" height="11.34" rx="1.13" style="fill: none; stroke: #000" /></g>
    <g><rect x="191.06" y="39.69" width="4.54" height="11.34" rx="1.13" style="fill: none; stroke: #000" /><rect x="212.60" y="39.69" width="4.54" height="11.34" rx="1.13" style="fill: none; stroke: #000" /></g>
    <g><rect x="236.41" y="39.69" width="4.54" height="11.34" rx="1.13" style="fill: none; stroke: #000" /><rect x="257.95" y="39.69" width="4.54" height="11.34" rx="1.13" style="fill: none; stroke: #000" /></g>
    <g><rect x="9.64" y="69.92" width="4.54" height="11.34" rx="1.13" style="fill: none; stroke: #000" /><rect x="31.18" y="69.92" width="4.54" height="11.34" rx="1.13" style="fill: none; stroke: #000" /></g>
    <g><rect x="54.99" y="69.92" width="4.54" height="11.34" rx="1.13" style="fill: none; stroke: #000" /><rect x="76.54" y="69.92" width="4.54" height="11.34" rx="1.13" style="fill: none; stroke: #000" /></g>
    <g><rect x="100.35" y="69.92" width="4.54" height="11.34" rx="1.13" style="fill: none; stroke: #000" /><rect x="121.89" y="69.92" width="4.54" height="11.34" rx="1.13" style="fill: none; stroke: #000" /></g>
    <g><rect x="145.70" y="69.92" width="4.54" height="11.34" rx="1.13" style="fill: none; stroke: #000" /><rect x="167.24" y="69.92" width="4.54" height="11.34" rx="1.13" style="fill: none; stroke: #000" /></g>
    <g><rect x="191.06" y="69.92" width="4.54" height="11.34" rx="1.13" style="fill: none; stroke: #000" /><rect x="212.60" y="69.92" width="4.54" height="11.34" rx="1.13" style="fill: none; stroke: #000" /></g>
    <g><rect x="236.41" y="69.92" width="4.54" height="11.34" rx="1.13" style="fill: none; stroke: #000" /><rect x="257.95" y="69.92" width="4.54" height="11.34" rx="1.13" style="fill: none; stroke: #000" /></g>
    <g><rect x="9.64" y="100.16" width="4.54" height="11.34" rx="1.13" style="fill: none; stroke: #000" /><rect x="31.18" y="100.16" width="4.54" height="11.34" rx="1.13" style="fill: none; stroke: #000" /></g>
    <g><rect x="54.99" y="100.16" width="4.54" height="11.34" rx="1.13" style="fill: none; stroke: #000" /><rect x="76.54" y="100.16" width="4.54" height="11.34" rx="1.13" style="fill: none; stroke: #000" /></g>
    <g><rect x="100.35" y="100.16" width="4.54" height="11.34" rx="1.13" style="fill: none; stroke: #000" /><rect x="121.89" y="100.16" width="4.54" height="11.34" rx="1.13" style="fill: none; stroke: #000" /></g>
    <g><rect x="145.70" y="100.16" width="4.54" height="11.34" rx="1.13" style="fill: none; stroke: #000" /><rect x="167.24" y="100.16" width="4.54" height="11.34" rx="1.13" style="fill: none; stroke: #000" /></g>
    <g><rect x="191.06" y="100.16" width="4.54" height="11.34" rx="1.13" style="fill: none; stroke: #000" /><rect x="212.60" y="100.16" width="4.54" height="11.34" rx="1.13" style="fill: none; stroke: #000" /></g>
    <g><rect x="236.41" y="100.16" width="4.54" height="11.34" rx="1.13" style="fill: none; stroke: #000" /><rect x="257.95" y="100.16" width="4.54" height="11.34" rx="1.13" style="fill: none; stroke: #000" /></g>
    <g><rect x="9.64" y="130.39" width="4.54" height="11.34" rx="1.13" style="fill: none; stroke: #000" /><rect x="31.18" y="130.39" width="4.54" height="11.34" rx="1.13" style="fill: none; stroke: #000" /></g>
    <g><rect x="54.99" y="130.39" width="4.54" height="11.34" rx="1.13" style="fill: none; stroke: #000" /><rect x="76.54" y="130.39" width="4.54" height="11.34" rx="1.13" style="fill: none; stroke: #000" /></g>
    <g><rect x="100.35" y="130.39" width="4.54" height="11.34" rx="1.13" style="fill: none; stroke: #000" /><rect x="121.89" y="130.39" width="4.54" height="11.34" rx="1.13" style="fill: none; stroke: #000" /></g>
    <g><rect x="145.70" y="130.39" width="4.54" height="11.34" rx="1.13" style="fill: none; stroke: #000" /><rect x="167.24" y="130.39" width="4.54" height="11.34" rx="1.13" style="fill: none; stroke: #000" /></g>
    <g><rect x="191.06" y="130.39" width="4.54" height="11.34" rx="1.13" style="fill: none; stroke: #000" /><rect x="212.60" y="130.39" width="4.54" height="11.34" rx="1.13" style="fill: none; stroke: #000" /></g>
    <g><rect x="236.41" y="130.39" width="4.54" height="11.34" rx="1.13" style="fill: none; stroke: #000" /><rect x="257.95" y="130.39" width="4.54" height="11.34" rx="1.13" style="fill: none; stroke: #000" /></g>
    <g><rect x="9.64" y="160.63" width="4.54" height="11.34" rx="1.13" style="fill: none; stroke: #000" /><rect x="31.18" y="160.63" width="4.54" height="11.34" rx="1.13" style="fill: none; stroke: #000" /></g>
    <g><rect x="54.99" y="160.63" width="4.54" height="11.34" rx="1.13" style="fill: none; stroke: #000" /><rect x="76.54" y="160.63" width="4.54" height="11.34" rx="1.13" style="fill: none; stroke: #000" /></g>
    <g><rect x="100.35" y="160.63" width="4.54" height="11.34" rx="1.13" style="fill: none; stroke: #000" /><rect x="121.89" y="160.63" width="4.54" height="11.34" rx="1.13" style="fill: none; stroke: #000" /></g>
    <g><rect x="145.70" y="160.63" width="4.54" height="11.34" rx="1.13" style="fill: none; stroke: #000" /><rect x="167.24" y="160.63" width="4.54" height="11.34" rx="1.13" style="fill: none; stroke: #000" /></g>
    <g><rect x="191.06" y="160.63" width="4.54" height="11.34" rx="1.13" style="fill: none; stroke: #000" /><rect x="212.60" y="160.63" width="4.54" height="11.34" rx="1.13" style="fill: none; stroke: #000" /></g>
    <g><rect x="236.41" y="160.63" width="4.54" height="11.34" rx="1.13" style="fill: none; stroke: #000" /><rect x="257.95" y="160.63" width="4.54" height="11.34" rx="1.13" style="fill: none; stroke: #000" /></g>
    <g><rect x="9.64" y="190.87" width="4.54" height="11.34" rx="1.13" style="fill: none; stroke: #000" /><rect x="31.18" y="190.87" width="4.54" height="11.34" rx="1.13" style="fill: none; stroke: #000" /></g>
    <g><rect x="54.99" y="190.87" width="4.54" height="11.34" rx="1.13" style="fill: none; stroke: #000" /><rect x="76.54" y="190.87" width="4.54" height="11.34" rx="1.13" style="fill: none; stroke: #000" /></g>
    <g><rect x="100.35" y="190.87" width="4.54" height="11.34" rx="1.13" style="fill: none; stroke: #000" /><rect x="121.89" y="190.87" width="4.54" height="11.34" rx="1.13" style="fill: none; stroke: #000" /></g>
    <g><rect x="145.70" y="190.87" width="4.54" height="11.34" rx="1.13" style="fill: none; stroke: #000" /><rect x="167.24" y="190.87" width="4.54" height="11.34" rx="1.13" style="fill: none; stroke: #000" /></g>
    <g><rect x="191.06" y="190.87" width="4.54" height="11.34" rx="1.13" style="fill: none; stroke: #000" /><rect x="212.60" y="190.87" width="4.54" height="11.34" rx="1.13" style="fill: none; stroke: #000" /></g>
    <g><rect x="236.41" y="190.87" width="4.54" height="11.34" rx="1.13" style="fill: none; stroke: #000" /><rect x="257.95" y="190.87" width="4.54" height="11.34" rx="1.13" style="fill: none; stroke: #000" /></g>
  </g>
</svg>
    