
<svg viewbox="0 0 266.46 209.76"
     width="266.46"
     height="209.76"
     xmlns="http://www.w3.org/2000/svg">
  <g transform="translate(14.17, 14.17)">
    <line x1="0.43" y1="0.00" x2="33.59" y2="0.00" stroke="#0072B2" />
    <line x1="34.44" y1="0.00" x2="67.61" y2="0.00" stroke="#0072B2" />
    <line x1="68.46" y1="0.00" x2="101.62" y2="0.00" stroke="#0072B2" />
    <line x1="102.47" y1="0.00" x2="135.64" y2="0.00" stroke="#0072B2" />
    <line x1="136.49" y1="0.00" x2="169.65" y2="0.00" stroke="#0072B2" />
    <line x1="170.50" y1="0.00" x2="203.67" y2="0.00" stroke="#0072B2" />
    <line x1="204.52" y1="0.00" x2="237.69" y2="0.00" stroke="#0072B2" />
    <line x1="0.43" y1="22.68" x2="33.59" y2="22.68" stroke="#0072B2" />
    <line x1="34.44" y1="22.68" x2="67.61" y2="22.68" stroke="#0072B2" />
    <line x1="68.46" y1="22.68" x2="101.62" y2="22.68" stroke="#0072B2" />
    <line x1="102.47" y1="22.68" x2="135.64" y2="22.68" stroke="#0072B2" />
    <line x1="136.49" y1="22.68" x2="169.65" y2="22.68" stroke="#0072B2" />
    <line x1="170.50" y1="22.68" x2="203.67" y2="22.68" stroke="#0072B2" />
    <line x1="204.52" y1="22.68" x2="237.69" y2="22.68" stroke="#0072B2" />
    <line x1="0.43" y1="45.35" x2="33.59" y2="45.35" stroke="#0072B2" />
    <line x1="34.44" y1="45.35" x2="67.61" y2="45.35" stroke="#0072B2" />
    <line x1="68.46" y1="45.35" x2="101.62" y2="45.35" stroke="#0072B2" />
    <line x1="102.47" y1="45.35" x2="135.64" y2="45.35" stroke="#0072B2" />
    <line x1="136.49" y1="45.35" x2="169.65" y2="45.35" stroke="#0072B2" />
    <line x1="170.50" y1="45.35" x2="203.67" y2="45.35" stroke="#0072B2" />
    <line x1="204.52" y1="45.35" x2="237.69" y2="45.35" stroke="#0072B2" />
    <line x1="0.43" y1="68.03" x2="33.59" y2="68.03" stroke="#0072B2" />
    <line x1="34.44" y1="68.03" x2="67.61" y2="68.03" stroke="#0072B2" />
    <line x1="68.46" y1="68.03" x2="101.62" y2="68.03" stroke="#0072B2" />
    <line x1="102.47" y1="68.03" x2="135.64" y2="68.03" stroke="#0072B2" />
    <line x1="136.49" y1="68.03" x2="169.65" y2="68.03" stroke="#0072B2" />
    <line x1="170.50" y1="68.03" x2="203.67" y2="68.03" stroke="#0072B2" />
    <line x1="204.52" y1="68.03" x2="237.69" y2="68.03" stroke="#0072B2" />
    <line x1="0.43" y1="90.71" x2="33.59" y2="90.71" stroke="#0072B2" />
    <line x1="34.44" y1="90.71" x2="67.61" y2="90.71" stroke="#0072B2" />
    <line x1="68.46" y1="90.71" x2="101.62" y2="90.71" stroke="#0072B2" />
    <line x1="102.47" y1="90.71" x2="135.64" y2="90.71" stroke="#0072B2" />
    <line x1="136.49" y1="90.71" x2="169.65" y2="90.71" stroke="#0072B2" />
    <line x1="170.50" y1="90.71" x2="203.67" y2="90.71" stroke="#0072B2" />
    <line x1="204.52" y1="90.71" x2="237.69" y2="90.71" stroke="#0072B2" />
    <line x1="0.43" y1="113.39" x2="33.59" y2="113.39" stroke="#0072B2" />
    <line x1="34.44" y1="113.39" x2="67.61" y2="113.39" stroke="#0072B2" />
    <line x1="68.46" y1="113.39" x2="101.62" y2="113.39" stroke="#0072B2" />
    <line x1="102.47" y1="113.39" x2="135.64" y2="113.39" stroke="#0072B2" />
    <line x1="136.49" y1="113.39" x2="169.65" y2="113.39" stroke="#0072B2" />
    <line x1="170.50" y1="113.39" x2="203.67" y2="113.39" stroke="#0072B2" />
    <line x1="204.52" y1="113.39" x2="237.69" y2="113.39" stroke="#0072B2" />
    <line x1="0.43" y1="136.06" x2="33.59" y2="136.06" stroke="#0072B2" />
    <line x1="34.44" y1="136.06" x2="67.61" y2="136.06" stroke="#0072B2" />
    <line x1="68.46" y1="136.06" x2="101.62" y2="136.06" stroke="#0072B2" />
    <line x1="102.47" y1="136.06" x2="135.64" y2="136.06" stroke="#0072B2" />
    <line x1="136.49" y1="136.06" x2="169.65" y2="136.06" stroke="#0072B2" />
    <line x1="170.50" y1="136.06" x2="203.67" y2="136.06" stroke="#0072B2" />
    <line x1="204.52" y1="136.06" x2="237.69" y2="136.06" stroke="#0072B2" />
    <line x1="0.43" y1="158.74" x2="33.59" y2="158.74" stroke="#0072B2" />
    <line x1="34.44" y1="158.74" x2="67.61" y2="158.74" stroke="#0072B2" />
    <line x1="68.46" y1="158.74" x2="101.62" y2="158.74" stroke="#0072B2" />
    <line x1="102.47" y1="158.74" x2="135.64" y2="158.74" stroke="#0072B2" />
    <line x1="136.49" y1="158.74" x2="169.65" y2="158.74" stroke="#0072B2" />
    <line x1="170.50" y1="158.74" x2="203.67" y2="158.74" stroke="#0072B2" />
    <line x1="204.52" y1="158.74" x2="237.69" y2="158.74" stroke="#0072B2" />
    <line x1="0.43" y1="181.42" x2="33.59" y2="181.42" stroke="#0072B2" />
    <line x1="34.44" y1="181.42" x2="67.61" y2="181.42" stroke="#0072B2" />
    <line x1="68.46" y1="181.42" x2="101.62" y2="181.42" stroke="#0072B2" />
    <line x1="102.47" y1="181.42" x2="135.64" y2="181.42" stroke="#0072B2" />
    <line x1="136.49" y1="181.42" x2="169.65" y2="181.42" stroke="#0072B2" />
    <line x1="170.50" y1="181.42" x2="203.67" y2="181.42" stroke="#0072B2" />
    <line x1="204.52" y1="181.42" x2="237.69" y2="181.42" stroke="#0072B2" />

    <line x1="0.00" y1="0.43" x2="0.00" y2="22.25" stroke="#0072B2" />
    <line x1="34.02" y1="0.43" x2="34.02" y2="22.25" stroke="#0072B2" />
    <line x1="68.03" y1="0.43" x2="68.03" y2="22.25" stroke="#0072B2" />
    <line x1="102.05" y1="0.43" x2="102.05" y2="22.25" stroke="#0072B2" />
    <line x1="136.06" y1="0.43" x2="136.06" y2="22.25" stroke="#0072B2" />
    <line x1="170.08" y1="0.43" x2="170.08" y2="22.25" stroke="#0072B2" />
    <line x1="204.09" y1="0.43" x2="204.09" y2="22.25" stroke="#0072B2" />
    <line x1="238.11" y1="0.43" x2="238.11" y2="22.25" stroke="#0072B2" />
    <line x1="0.00" y1="23.10" x2="0.00" y2="44.93" stroke="#0072B2" />
    <line x1="34.02" y1="23.10" x2="34.02" y2="44.93" stroke="#0072B2" />
    <line x1="68.03" y1="23.10" x2="68.03" y2="44.93" stroke="#0072B2" />
    <line x1="102.05" y1="23.10" x2="102.05" y2="44.93" stroke="#0072B2" />
    <line x1="136.06" y1="23.10" x2="136.06" y2="44.93" stroke="#0072B2" />
    <line x1="170.08" y1="23.10" x2="170.08" y2="44.93" stroke="#0072B2" />
    <line x1="204.09" y1="23.10" x2="204.09" y2="44.93" stroke="#0072B2" />
    <line x1="238.11" y1="23.10" x2="238.11" y2="44.93" stroke="#0072B2" />
    <line x1="0.00" y1="45.78" x2="0.00" y2="67.61" stroke="#0072B2" />
    <line x1="34.02" y1="45.78" x2="34.02" y2="67.61" stroke="#0072B2" />
    <line x1="68.03" y1="45.78" x2="68.03" y2="67.61" stroke="#0072B2" />
    <line x1="102.05" y1="45.78" x2="102.05" y2="67.61" stroke="#0072B2" />
    <line x1="136.06" y1="45.78" x2="136.06" y2="67.61" stroke="#0072B2" />
    <line x1="170.08" y1="45.78" x2="170.08" y2="67.61" stroke="#0072B2" />
    <line x1="204.09" y1="45.78" x2="204.09" y2="67.61" stroke="#0072B2" />
    <line x1="238.11" y1="45.78" x2="238.11" y2="67.61" stroke="#0072B2" />
    <line x1="0.00" y1="68.46" x2="0.00" y2="90.28" stroke="#0072B2" />
    <line x1="34.02" y1="68.46" x2="34.02" y2="90.28" stroke="#0072B2" />
    <line x1="68.03" y1="68.46" x2="68.03" y2="90.28" stroke="#0072B2" />
    <line x1="102.05" y1="68.46" x2="102.05" y2="90.28" stroke="#0072B2" />
    <line x1="136.06" y1="68.46" x2="136.06" y2="90.28" stroke="#0072B2" />
    <line x1="170.08" y1="68.46" x2="170.08" y2="90.28" stroke="#0072B2" />
    <line x1="204.09" y1="68.46" x2="204.09" y2="90.28" stroke="#0072B2" />
    <line x1="238.11" y1="68.46" x2="238.11" y2="90.28" stroke="#0072B2" />
    <line x1="0.00" y1="91.13" x2="0.00" y2="112.96" stroke="#0072B2" />
    <line x1="34.02" y1="91.13" x2="34.02" y2="112.96" stroke="#0072B2" />
    <line x1="68.03" y1="91.13" x2="68.03" y2="112.96" stroke="#0072B2" />
    <line x1="102.05" y1="91.13" x2="102.05" y2="112.96" stroke="#0072B2" />
    <line x1="136.06" y1="91.13" x2="136.06" y2="112.96" stroke="#0072B2" />
    <line x1="170.08" y1="91.13" x2="170.08" y2="112.96" stroke="#0072B2" />
    <line x1="204.09" y1="91.13" x2="204.09" y2="112.96" stroke="#0072B2" />
    <line x1="238.11" y1="91.13" x2="238.11" y2="112.96" stroke="#0072B2" />
    <line x1="0.00" y1="113.81" x2="0.00" y2="135.64" stroke="#0072B2" />
    <line x1="34.02" y1="113.81" x2="34.02" y2="135.64" stroke="#0072B2" />
    <line x1="68.03" y1="113.81" x2="68.03" y2="135.64" stroke="#0072B2" />
    <line x1="102.05" y1="113.81" x2="102.05" y2="135.64" stroke="#0072B2" />
    <line x1="136.06" y1="113.81" x2="136.06" y2="135.64" stroke="#0072B2" />
    <line x1="170.08" y1="113.81" x2="170.08" y2="135.64" stroke="#0072B2" />
    <line x1="204.09" y1="113.81" x2="204.09" y2="135.64" stroke="#0072B2" />
    <line x1="238.11" y1="113.81" x2="238.11" y2="135.64" stroke="#0072B2" />
    <line x1="0.00" y1="136.49" x2="0.00" y2="158.31" stroke="#0072B2" />
    <line x1="34.02" y1="136.49" x2="34.02" y2="158.31" stroke="#0072B2" />
    <line x1="68.03" y1="136.49" x2="68.03" y2="158.31" stroke="#0072B2" />
    <line x1="102.05" y1="136.49" x2="102.05" y2="158.31" stroke="#0072B2" />
    <line x1="136.06" y1="136.49" x2="136.06" y2="158.31" stroke="#0072B2" />
    <line x1="170.08" y1="136.49" x2="170.08" y2="158.31" stroke="#0072B2" />
    <line x1="204.09" y1="136.49" x2="204.09" y2="158.31" stroke="#0072B2" />
    <line x1="238.11" y1="136.49" x2="238.11" y2="158.31" stroke="#0072B2" />
    <line x1="0.00" y1="159.17" x2="0.00" y2="180.99" stroke="#0072B2" />
    <line x1="34.02" y1="159.17" x2="34.02" y2="180.99" stroke="#0072B2" />
    <line x1="68.03" y1="159.17" x2="68.03" y2="180.99" stroke="#0072B2" />
    <line x1="102.05" y1="159.17" x2="102.05" y2="180.99" stroke="#0072B2" />
    <line x1="136.06" y1="159.17" x2="136.06" y2="180.99" stroke="#0072B2" />
    <line x1="170.08" y1="159.17" x2="170.08" y2="180.99" stroke="#0072B2" />
    <line x1="204.09" y1="159.17" x2="204.09" y2="180.99" stroke="#0072B2" />
    <line x1="238.11" y1="159.17" x2="238.11" y2="180.99" stroke="#0072B2" />

    <g><rect x="7.37" y="7.23" width="3.12" height="8.22" rx="0.78" style="fill: none; stroke: #000000" /><rect x="23.53" y="7.23" width="3.12" height="8.22" rx="0.78" style="fill: none; stroke: #000000" /></g>
    <g><rect x="41.39" y="7.23" width="3.12" height="8.22" rx="0.78" style="fill: none; stroke: #000000" /><rect x="57.54" y="7.23" width="3.12" height="8.22" rx="0.78" style="fill: none; stroke: #000000" /></g>
    <g><rect x="75.40" y="7.23" width="3.12" height="8.22" rx="0.78" style="fill: none; stroke: #000000" /><rect x="91.56" y="7.23" width="3.12" height="8.22" rx="0.78" style="fill: none; stroke: #000000" /></g>
    <g><rect x="109.42" y="7.23" width="3.12" height="8.22" rx="0.78" style="fill: none; stroke: #000000" /><rect x="125.57" y="7.23" width="3.12" height="8.22" rx="0.78" style="fill: none; stroke: #000000" /></g>
    <g><rect x="143.43" y="7.23" width="3.12" height="8.22" rx="0.78" style="fill: none; stroke: #000000" /><rect x="159.59" y="7.23" width="3.12" height="8.22" rx="0.78" style="fill: none; stroke: #000000" /></g>
    <g><rect x="177.45" y="7.23" width="3.12" height="8.22" rx="0.78" style="fill: none; stroke: #000000" /><rect x="193.61" y="7.23" width="3.12" height="8.22" rx="0.78" style="fill: none; stroke: #000000" /></g>
    <g><rect x="211.46" y="7.23" width="3.12" height="8.22" rx="0.78" style="fill: none; stroke: #000000" /><rect x="227.62" y="7.23" width="3.12" height="8.22" rx="0.78" style="fill: none; stroke: #000000" /></g>
    <g><rect x="7.37" y="29.91" width="3.12" height="8.22" rx="0.78" style="fill: none; stroke: #000000" /><rect x="23.53" y="29.91" width="3.12" height="8.22" rx="0.78" style="fill: none; stroke: #000000" /></g>
    <g><rect x="41.39" y="29.91" width="3.12" height="8.22" rx="0.78" style="fill: none; stroke: #000000" /><rect x="57.54" y="29.91" width="3.12" height="8.22" rx="0.78" style="fill: none; stroke: #000000" /></g>
    <g><rect x="75.40" y="29.91" width="3.12" height="8.22" rx="0.78" style="fill: none; stroke: #000000" /><rect x="91.56" y="29.91" width="3.12" height="8.22" rx="0.78" style="fill: none; stroke: #000000" /></g>
    <g><rect x="109.42" y="29.91" width="3.12" height="8.22" rx="0.78" style="fill: none; stroke: #000000" /><rect x="125.57" y="29.91" width="3.12" height="8.22" rx="0.78" style="fill: none; stroke: #000000" /></g>
    <g><rect x="143.43" y="29.91" width="3.12" height="8.22" rx="0.78" style="fill: none; stroke: #000000" /><rect x="159.59" y="29.91" width="3.12" height="8.22" rx="0.78" style="fill: none; stroke: #000000" /></g>
    <g><rect x="177.45" y="29.91" width="3.12" height="8.22" rx="0.78" style="fill: none; stroke: #000000" /><rect x="193.61" y="29.91" width="3.12" height="8.22" rx="0.78" style="fill: none; stroke: #000000" /></g>
    <g><rect x="211.46" y="29.91" width="3.12" height="8.22" rx="0.78" style="fill: none; stroke: #000000" /><rect x="227.62" y="29.91" width="3.12" height="8.22" rx="0.78" style="fill: none; stroke: #000000" /></g>
    <g><rect x="7.37" y="52.58" width="3.12" height="8.22" rx="0.78" style="fill: none; stroke: #000000" /><rect x="23.53" y="52.58" width="3.12" height="8.22" rx="0.78" style="fill: none; stroke: #000000" /></g>
    <g><rect x="41.39" y="52.58" width="3.12" height="8.22" rx="0.78" style="fill: none; stroke: #000000" /><rect x="57.54" y="52.58" width="3.12" height="8.22" rx="0.78" style="fill: none; stroke: #000000" /></g>
    <g><rect x="75.40" y="52.58" width="3.12" height="8.22" rx="0.78" style="fill: none; stroke: #000000" /><rect x="91.56" y="52.58" width="3.12" height="8.22" rx="0.78" style="fill: none; stroke: #000000" /></g>
    <g><rect x="109.42" y="52.58" width="3.12" height="8.22" rx="0.78" style="fill: none; stroke: #000000" /><rect x="125.57" y="52.58" width="3.12" height="8.22" rx="0.78" style="fill: none; stroke: #000000" /></g>
    <g><rect x="143.43" y="52.58" width="3.12" height="8.22" rx="0.78" style="fill: none; stroke: #000000" /><rect x="159.59" y="52.58" width="3.12" height="8.22" rx="0.78" style="fill: none; stroke: #000000" /></g>
    <g><rect x="177.45" y="52.58" width="3.12" height="8.22" rx="0.78" style="fill: none; stroke: #000000" /><rect x="193.61" y="52.58" width="3.12" height="8.22" rx="0.78" style="fill: none; stroke: #000000" /></g>
    <g><rect x="211.46" y="52.58" width="3.12" height="8.22" rx="0.78" style="fill: none; stroke: #000000" /><rect x="227.62" y="52.58" width="3.12" height="8.22" rx="0.78" style="fill: none; stroke: #000000" /></g>
    <g><rect x="7.37" y="75.26" width="3.12" height="8.22" rx="0.78" style="fill: none; stroke: #000000" /><rect x="23.53" y="75.26" width="3.12" height="8.22" rx="0.78" style="fill: none; stroke: #000000" /></g>
    <g><rect x="41.39" y="75.26" width="3.12" height="8.22" rx="0.78" style="fill: none; stroke: #000000" /><rect x="57.54" y="75.26" width="3.12" height="8.22" rx="0.78" style="fill: none; stroke: #000000" /></g>
    <g><rect x="75.40" y="75.26" width="3.12" height="8.22" rx="0.78" style="fill: none; stroke: #000000" /><rect x="91.56" y="75.26" width="3.12" height="8.22" rx="0.78" style="fill: none; stroke: #000000" /></g>
    <g><rect x="109.42" y="75.26" width="3.12" height="8.22" rx="0.78" style="fill: none; stroke: #000000" /><rect x="125.57" y="75.26" width="3.12" height="8.22" rx="0.78" style="fill: none; stroke: #000000" /></g>
    <g><rect x="143.43" y="75.26" width="3.12" height="8.22" rx="0.78" style="fill: none; stroke: #000000" /><rect x="159.59" y="75.26" width="3.12" height="8.22" rx="0.78" style="fill: none; stroke: #000000" /></g>
    <g><rect x="177.45" y="75.26" width="3.12" height="8.22" rx="0.78" style="fill: none; stroke: #000000" /><rect x="193.61" y="75.26" width="3.12" height="8.22" rx="0.78" style="fill: none; stroke: #000000" /></g>
    <g><rect x="211.46" y="75.26" width="3.12" height="8.22" rx="0.78" style="fill: none; stroke: #000000" /><rect x="227.62" y="75.26" width="3.12" height="8.22" rx="0.78" style="fill: none; stroke: #000000" /></g>
    <g><rect x="7.37" y="97.94" width="3.12" height="8.22" rx="0.78" style="fill: none; stroke: #000000" /><rect x="23.53" y="97.94" width="3.12" height="8.22" rx="0.78" style="fill: none; stroke: #000000" /></g>
    <g><rect x="41.39" y="97.94" width="3.12" height="8.22" rx="0.78" style="fill: none; stroke: #000000" /><rect x="57.54" y="97.94" width="3.12" height="8.22" rx="0.78" style="fill: none; stroke: #000000" /></g>
    <g><rect x="75.40" y="97.94" width="3.12" height="8.22" rx="0.78" style="fill: none; stroke: #000000" /><rect x="91.56" y="97.94" width="3.12" height="8.22" rx="0.78" style="fill: none; stroke: #000000" /></g>
    <g><rect x="109.42" y="97.94" width="3.12" height="8.22" rx="0.78" style="fill: none; stroke: #000000" /><rect x="125.57" y="97.94" width="3.12" height="8.22" rx="0.78" style="fill: none; stroke: #000000" /></g>
    <g><rect x="143.43" y="97.94" width="3.12" height="8.22" rx="0.78" style="fill: none; stroke: #000000" /><rect x="159.59" y="97.94" width="3.12" height="8.22" rx="0.78" style="fill: none; stroke: #000000" /></g>
    <g><rect x="177.45" y="97.94" width="3.12" height="8.22" rx="0.78" style="fill: none; stroke: #000000" /><rect x="193.61" y="97.94" width="3.12" height="8.22" rx="0.78" style="fill: none; stroke: #000000" /></g>
    <g><rect x="211.46" y="97.94" width="3.12" height="8.22" rx="0.78" style="fill: none; stroke: #000000" /><rect x="227.62" y="97.94" width="3.12" height="8.22" rx="0.78" style="fill: none; stroke: #000000" /></g>
    <g><rect x="7.37" y="120.61" width="3.12" height="8.22" rx="0.78" style="fill: none; stroke: #000000" /><rect x="23.53" y="120.61" width="3.12" height="8.22" rx="0.78" style="fill: none; stroke: #000000" /></g>
    <g><rect x="41.39" y="120.61" width="3.12" height="8.22" rx="0.78" style="fill: none; stroke: #000000" /><rect x="57.54" y="120.61" width="3.12" height="8.22" rx="0.78" style="fill: none; stroke: #000000" /></g>
    <g><rect x="75.40" y="120.61" width="3.12" height="8.22" rx="0.78" style="fill: none; stroke: #000000" /><rect x="91.56" y="120.61" width="3.12" height="8.22" rx="0.78" style="fill: none; stroke: #000000" /></g>
    <g><rect x="109.42" y="120.61" width="3.12" height="8.22" rx="0.78" style="fill: none; stroke: #000000" /><rect x="125.57" y="120.61" width="3.12" height="8.22" rx="0.78" style="fill: none; stroke: #000000" /></g>
    <g><rect x="143.43" y="120.61" width="3.12" height="8.22" rx="0.78" style="fill: none; stroke: #000000" /><rect x="159.59" y="120.61" width="3.12" height="8.22" rx="0.78" style="fill: none; stroke: #000000" /></g>
    <g><rect x="177.45" y="120.61" width="3.12" height="8.22" rx="0.78" style="fill: none; stroke: #000000" /><rect x="193.61" y="120.61" width="3.12" height="8.22" rx="0.78" style="fill: none; stroke: #000000" /></g>
    <g><rect x="211.46" y="120.61" width="3.12" height="8.22" rx="0.78" style="fill: none; stroke: #000000" /><rect x="227.62" y="120.61" width="3.12" height="8.22" rx="0.78" style="fill: none; stroke: #000000" /></g>
    <g><rect x="7.37" y="143.29" width="3.12" height="8.22" rx="0.78" style="fill: none; stroke: #000000" /><rect x="23.53" y="143.29" width="3.12" height="8.22" rx="0.78" style="fill: none; stroke: #000000" /></g>
    <g><rect x="41.39" y="143.29" width="3.12" height="8.22" rx="0.78" style="fill: none; stroke: #000000" /><rect x="57.54" y="143.29" width="3.12" height="8.22" rx="0.78" style="fill: none; stroke: #000000" /></g>
    <g><rect x="75.40" y="143.29" width="3.12" height="8.22" rx="0.78" style="fill: none; stroke: #000000" /><rect x="91.56" y="143.29" width="3.12" height="8.22" rx="0.78" style="fill: none; stroke: #000000" /></g>
    <g><rect x="109.42" y="143.29" width="3.12" height="8.22" rx="0.78" style="fill: none; stroke: #000000" /><rect x="125.57" y="143.29" width="3.12" height="8.22" rx="0.78" style="fill: none; stroke: #000000" /></g>
    <g><rect x="143.43" y="143.29" width="3.12" height="8.22" rx="0.78" style="fill: none; stroke: #000000" /><rect x="159.59" y="143.29" width="3.12" height="8.22" rx="0.78" style="fill: none; stroke: #000000" /></g>
    <g><rect x="177.45" y="143.29" width="3.12" height="8.22" rx="0.78" style="fill: none; stroke: #000000" /><rect x="193.61" y="143.29" width="3.12" height="8.22" rx="0.78" style="fill: none; stroke: #000000" /></g>
    <g><rect x="211.46" y="143.29" width="3.12" height="8.22" rx="0.78" style="fill: none; stroke: #000000" /><rect x="227.62" y="143.29" width="3.12" height="8.22" rx="0.78" style="fill: none; stroke: #000000" /></g>
    <g><rect x="7.37" y="165.97" width="3.12" height="8.22" rx="0.78" style="fill: none; stroke: #000000" /><rect x="23.53" y="165.97" width="3.12" height="8.22" rx="0.78" style="fill: none; stroke: #000000" /></g>
    <g><rect x="41.39" y="165.97" width="3.12" height="8.22" rx="0.78" style="fill: none; stroke: #000000" /><rect x="57.54" y="165.97" width="3.12" height="8.22" rx="0.78" style="fill: none; stroke: #000000" /></g>
    <g><rect x="75.40" y="165.97" width="3.12" height="8.22" rx="0.78" style="fill: none; stroke: #000000" /><rect x="91.56" y="165.97" width="3.12" height="8.22" rx="0.78" style="fill: none; stroke: #000000" /></g>
    <g><rect x="109.42" y="165.97" width="3.12" height="8.22" rx="0.78" style="fill: none; stroke: #000000" /><rect x="125.57" y="165.97" width="3.12" height="8.22" rx="0.78" style="fill: none; stroke: #000000" /></g>
    <g><rect x="143.43" y="165.97" width="3.12" height="8.22" rx="0.78" style="fill: none; stroke: #000000" /><rect x="159.59" y="165.97" width="3.12" height="8.22" rx="0.78" style="fill: none; stroke: #000000" /></g>
    <g><rect x="177.45" y="165.97" width="3.12" height="8.22" rx="0.78" style="fill: none; stroke: #000000" /><rect x="193.61" y="165.97" width="3.12" height="8.22" rx="0.78" style="fill: none; stroke: #000000" /></g>
    <g><rect x="211.46" y="165.97" width="3.12" height="8.22" rx="0.78" style="fill: none; stroke: #000000" /><rect x="227.62" y="165.97" width="3.12" height="8.22" rx="0.78" style="fill: none; stroke: #000000" /></g>
  </g>
</svg>
    